<?xml version="1.0" encoding="UTF-8" standalone="no"?>
<!-- Created with Inkscape (http://www.inkscape.org/) -->

<svg
   xmlns:dc="http://purl.org/dc/elements/1.1/"
   xmlns:cc="http://creativecommons.org/ns#"
   xmlns:rdf="http://www.w3.org/1999/02/22-rdf-syntax-ns#"
   xmlns:svg="http://www.w3.org/2000/svg"
   xmlns="http://www.w3.org/2000/svg"
   xmlns:sodipodi="http://sodipodi.sourceforge.net/DTD/sodipodi-0.dtd"
   xmlns:inkscape="http://www.inkscape.org/namespaces/inkscape"
   width="1000"
   height="1000"
   id="svg2"
   version="1.1"
   inkscape:version="0.48.4 r9939"
   sodipodi:docname="New document 1">
  <defs
     id="defs4" />
  <sodipodi:namedview
     id="base"
     pagecolor="#ffffff"
     bordercolor="#666666"
     borderopacity="1.0"
     inkscape:pageopacity="0.0"
     inkscape:pageshadow="2"
     inkscape:zoom="0.35"
     inkscape:cx="-130.71429"
     inkscape:cy="520"
     inkscape:document-units="px"
     inkscape:current-layer="layer1"
     showgrid="false"
     inkscape:snap-global="false"
     inkscape:snap-bbox="true"
     inkscape:window-width="1393"
     inkscape:window-height="876"
     inkscape:window-x="47"
     inkscape:window-y="24"
     inkscape:window-maximized="1" />
  <metadata
     id="metadata7">
    <rdf:RDF>
      <cc:Work
         rdf:about="">
        <dc:format>image/svg+xml</dc:format>
        <dc:type
           rdf:resource="http://purl.org/dc/dcmitype/StillImage" />
        <dc:title></dc:title>
      </cc:Work>
    </rdf:RDF>
  </metadata>
  <g
     inkscape:label="Layer 1"
     inkscape:groupmode="layer"
     id="layer1"
     transform="translate(0,-52.362183)">
    <rect
       style="fill:#ffb380;fill-opacity:1;stroke:none"
       id="rect2993"
       width="1102.8572"
       height="1071.4286"
       x="-65.714287"
       y="-34.285713"
       transform="translate(0,52.362183)" />
    <path
       style="color:#000000;fill:#ffeeaa;stroke:none;stroke-width:1px;stroke-linecap:butt;stroke-linejoin:miter;stroke-miterlimit:4;stroke-opacity:1;stroke-dasharray:none;stroke-dashoffset:0;marker:none;visibility:visible;display:inline;overflow:visible;enable-background:accumulate;opacity:1"
       d="M -77.142857,595.21932 2.8571429,583.79075 40,600.93361 l 28.571429,-31.42857 40.000001,14.28571 48.57143,-14.28571 40,25.71428 54.28571,2.85715 34.28572,42.85714 74.28571,-20 54.28572,-22.85714 40,14.28571 28.57142,-8.57143 77.14286,20 57.14286,-28.57143 65.71428,-8.57143 40,57.14286 65.71429,-5.71428 37.14286,37.14285 77.14285,0 42.85715,20 45.71428,-37.14285 11.42853,-20 68.5714,20 0,-165.71429 -88.57136,54.28571 -71.42857,-20 -31.42857,20 -14.28571,11.42858 -40,-28.57143 L 814.28572,492.36218 760,489.50504 l -34.28571,-40 -42.85715,-48.57143 -74.28571,11.42857 -25.71429,11.42857 L 540,466.64789 l -37.14286,-8.57142 -37.14285,34.28571 -68.57143,14.28571 -48.57143,-14.28571 -40,17.14286 -11.42857,25.71428 -40,-8.57143 L 240,489.50504 l -45.71428,0 -48.57143,-14.28572 -57.142861,-34.28571 -85.7142861,25.71428 -28.5714279,22.85715 -57.142857,-5.71429 z"
       id="path2999"
       inkscape:connector-curvature="0" />
    <path
       style="fill:#87aade;fill-opacity:1;stroke:none"
       d="m 809.28571,579.56914 c -36.92857,-13.26285 -72.42948,-26.08725 -78.89091,-28.49866 -11.73046,-4.37784 -11.75554,-4.4195 -16.76471,-27.87029 -2.75918,-12.91725 -6.20992,-24.97422 -7.66838,-26.79328 -1.45842,-1.81906 -20.63345,-13.15187 -42.61117,-25.18402 l -39.95951,-21.87664 -20.62409,19.11674 c -34.38348,31.87051 -67.43945,51.59762 -97.89811,58.42355 -7.02292,1.57387 -48.82763,7.31084 -92.89934,12.74883 l -80.1304,9.88726 -26.27669,-7.09308 C 267.8614,532.25261 213.22893,519.77233 173.57143,512.27746 129.96386,504.03606 69.075651,503.28895 30.080046,510.5168 6.4368514,514.89907 -47.068723,528.87207 -60,534.04123 c -4.569537,1.82663 -5,-0.55978 -5,-27.71913 l 0,-29.71784 23.571429,-17.3994 23.571428,-17.39941 77.142857,-2.98862 77.142856,-2.98862 11.42857,13.33447 c 27.73853,32.36437 21.96309,29.74917 85.71429,38.81255 l 57.14286,8.12388 24.88662,-8.78633 C 353.38406,473.97328 390.21443,464.67409 425,459.69095 c 17.28571,-2.47623 37.85714,-6.52625 45.71429,-9.00004 20.80148,-6.54926 54.50311,-23.7715 79.4204,-40.58551 l 21.75011,-14.67683 48.89357,0 48.89354,0 53.37835,36.25911 c 29.35805,19.94251 60.17843,42.25843 68.48965,49.59092 15.82878,13.96472 39.04832,26.73583 60.34275,33.18942 25.63794,7.76996 63.17563,4.17496 141.08014,-13.51131 20.3145,-4.61191 38.0834,-8.38528 39.4863,-8.38528 1.403,0 2.5509,18 2.5509,40 0,22 -0.3876,40 -0.8614,40 -0.4737,0 -36.08611,7.07143 -79.1386,15.71428 -43.05249,8.64286 -78.34343,15.64306 -78.42434,15.556 -0.0809,-0.0871 -30.36137,-11.00972 -67.28995,-24.27257 z"
       id="path2997"
       inkscape:connector-curvature="0"
       transform="translate(0,52.362183)" />
    <path
       style="fill:#deaa87;fill-opacity:1;stroke:none"
       d="m 240.25177,582.82291 -23.93814,-18.31994 -33.08538,-1.97246 -33.08539,-1.97246 -16.56885,-12.86452 -16.56884,-12.86452 -25.450239,9.17694 c -13.997628,5.04731 -33.375108,14.75734 -43.061065,21.57783 l -17.610832,12.4009 -34.1709483,-17.12937 -34.1709517,-17.12938 -12.422195,7.27989 c -6.832208,4.00394 -13.157534,7.27989 -14.056282,7.27989 -1.544983,0 -2.436104,-14.0466 -0.9198,-14.49866 0.392857,-0.11713 15.5,-2.42637 33.571429,-5.13166 l 32.8571426,-4.9187 19.7315144,8.61111 19.731517,8.61112 13.811166,-15.42007 13.811168,-15.42007 20.832486,6.53339 20.83249,6.5334 20.21858,-6.02136 c 11.12022,-3.31174 22.13063,-6.02135 24.46758,-6.02135 2.33696,0 12.4153,5.27813 22.39632,11.72917 17.25631,11.15329 19.4875,11.80433 45.44295,13.25983 l 27.29566,1.53065 16.66263,21.02589 c 9.16442,11.56424 18.177,21.02589 20.02791,21.02589 5.4946,0 76.28274,-19.86111 82.33751,-23.10153 3.06595,-1.64084 6.82543,-2.56636 8.35443,-2.0567 1.52897,0.50966 -11.81828,8.95019 -29.6606,18.75673 l -32.44051,17.83007 -25.61714,0 -25.61715,0 -23.93817,-18.31995 z"
       id="path3011"
       inkscape:connector-curvature="0"
       transform="translate(0,52.362183)" />
    <path
       style="fill:#deaa87;fill-opacity:1;stroke:none"
       d="M 833.06549,639.48865 C 806.35351,620.32254 806.23,620.26747 769.62509,611.2032 747.76206,605.78938 733.02283,604 710.29177,604 l -30.24408,0 -31.54829,-15.82205 -31.54827,-15.82206 -31.8743,5.82206 C 560.32213,582.69956 541.2012,584 499.47275,584 l -53.72979,0 -26.22118,-13.16907 c -25.60591,-12.86006 -26.0571,-13.25993 -19.22862,-17.04161 9.62004,-5.32767 15.06572,-5.02514 37.06086,2.05887 17.78645,5.72851 19.8823,5.84865 31.71199,1.81787 12.20402,-4.15833 14.10844,-3.94709 52.12287,5.78145 l 39.45604,10.09746 30.46326,-14.76013 c 25.01343,-12.11957 34.80792,-15.28344 54.74896,-17.68528 13.35715,-1.60883 26.85715,-3.46002 30,-4.11375 4.53497,-0.9433 9.77532,4.67 25.39155,27.19851 22.31762,32.19623 18.09474,30.48481 63.17988,25.60511 l 22.85714,-2.4739 18.64315,18.34223 18.64311,18.34224 37.62717,0 c 36.98303,0 38.0062,0.17274 59.77177,10.09164 12.17958,5.5504 23.76749,9.4689 25.75095,8.70777 4.84751,-1.86016 46.68983,-36.29757 46.77025,-38.49322 0.0349,-0.95412 2.41675,-4.79503 5.29289,-8.53536 5.0617,-6.58256 5.7009,-6.67975 19.9365,-3.03129 14.1198,3.61879 14.7071,4.16135 14.7071,13.58632 0,10.60312 0.242,10.55217 -23.2381,4.89161 -5.3968,-1.30105 -12.53016,2.99421 -35.33336,21.27546 l -28.57143,22.90561 -46.00231,0.0151 -46.00231,0.0149 -22.2156,-15.93992 z"
       id="path3013"
       inkscape:connector-curvature="0"
       transform="translate(0,52.362183)" />
    <path
       style="fill:#deaa87;fill-opacity:1;stroke:none"
       d="m 844.06711,487.81109 c -16.31577,-12.03234 -17.83694,-14.13768 -22.40314,-31.00658 l -4.89883,-18.09774 -28.11985,-1.9936 -28.11983,-1.9936 -27.30057,-31.78835 c -15.01529,-17.4836 -32.19052,-37.38248 -38.16715,-44.21974 l -10.8666,-12.43138 -39.88128,6.30967 c -22.113,3.49854 -44.97306,8.84491 -51.30986,12.00005 -6.28571,3.12971 -21.07143,15.15526 -32.85714,26.72346 l -21.42857,21.03308 -17.80675,-4.5121 -17.80674,-4.51211 -19.6852,17.45224 c -19.58057,17.35949 -19.85986,17.49001 -52.5518,24.55822 l -32.86663,7.10598 -24.85311,-7.36995 -24.85312,-7.36995 -21.11014,9.2042 c -19.48177,8.49421 -21.48077,10.17457 -25.9144,21.78393 -3.42657,8.97229 -6.12,12.22386 -9.39246,11.33878 -2.52354,-0.68252 -11.23783,-2.74307 -19.36511,-4.57901 -14.61874,-3.30234 -14.86032,-3.53433 -22.57149,-21.67804 l -7.7946,-18.33998 -23.35357,0 c -32.56539,0 -63.40704,-9.72672 -100.55474,-31.71257 L 88.81844,386.30616 45.802103,399.17398 c -34.958603,10.45744 -45.80604014,15.01224 -57.90922,24.31586 -14.740517,11.33092 -15.090192,11.43194 -34.178597,9.87365 -17.924541,-1.46329 -19.285715,-2.05094 -19.285715,-8.32609 0,-6.01873 1.318224,-6.7653 12.142858,-6.87709 16.531745,-0.17074 28.854194,-5.01779 50.7419681,-19.95941 C 14.230197,386.6527 18.86522,385.01806 50.142857,379.56948 l 34.285714,-5.97259 34.285719,11.29594 c 32.03751,10.55522 35.11872,12.23318 46.98939,25.58937 l 12.70367,14.29344 36.07925,-1.46331 36.07926,-1.46331 16.71494,12.50406 c 9.19323,6.87723 18.09806,12.48765 19.78851,12.46759 5.56749,-0.0661 45.41903,-13.52201 75.27755,-25.4176 16.13668,-6.42883 31.04283,-11.68878 33.12474,-11.68878 2.08194,0 11.85971,5.21872 21.7284,11.59716 9.86869,6.37844 19.56617,10.97432 21.54997,10.21307 1.9838,-0.76126 14.55786,-9.83713 27.94237,-20.1686 23.7264,-18.31437 24.76132,-18.78449 41.35135,-18.78449 39.85265,0 40.837,-0.46763 70.00105,-33.2553 l 26.33035,-29.60184 48.59817,0.0396 48.59817,0.0396 17.14286,27.45104 17.14285,27.45104 29.84797,11.28356 c 23.12235,8.74105 34.85532,15.26159 52.07035,28.93788 20.94185,16.637 24.46905,18.30102 61.21,28.87691 l 38.9876,11.22259 31.7992,-10.3635 c 30.85568,-10.05601 75.27374,-22.08168 81.56094,-22.08168 1.7965,0 3.0954,5.80902 3.0954,13.84389 l 0,13.84389 -25,15.27976 c -13.75003,8.40387 -26.9286,15.13102 -29.28574,14.94922 -2.35715,-0.1818 -18.80352,-4.36481 -36.54749,-9.29556 l -32.26177,-8.965 -14.88109,9.12946 c -8.1846,5.02121 -17.94734,11.52714 -21.69497,14.45762 -3.74763,2.93048 -8.24763,5.23299 -10,5.11668 -1.75237,-0.11631 -11.06305,-6.02044 -20.69043,-13.1203 l 0,0 z"
       id="path3015"
       inkscape:connector-curvature="0"
       transform="translate(0,52.362183)" />
  </g>
</svg>
