<?xml version="1.0" encoding="UTF-8" standalone="no"?>
<svg
   xmlns:dc="http://purl.org/dc/elements/1.1/"
   xmlns:cc="http://creativecommons.org/ns#"
   xmlns:rdf="http://www.w3.org/1999/02/22-rdf-syntax-ns#"
   xmlns:svg="http://www.w3.org/2000/svg"
   xmlns="http://www.w3.org/2000/svg"
   xmlns:xlink="http://www.w3.org/1999/xlink"
   xmlns:sodipodi="http://sodipodi.sourceforge.net/DTD/sodipodi-0.dtd"
   xmlns:inkscape="http://www.inkscape.org/namespaces/inkscape"
   width="570"
   height="512"
   id="svg4300"
   version="1.1"
   inkscape:version="0.48.4 r9939"
   sodipodi:docname="Layer 1.svg">
  <metadata
     id="metadata4342">
    <rdf:RDF>
      <cc:Work
         rdf:about="">
        <dc:format>image/svg+xml</dc:format>
        <dc:type
           rdf:resource="http://purl.org/dc/dcmitype/StillImage" />
        <dc:title></dc:title>
      </cc:Work>
    </rdf:RDF>
  </metadata>
  <sodipodi:namedview
     pagecolor="#ffffff"
     bordercolor="#666666"
     borderopacity="1"
     objecttolerance="10"
     gridtolerance="10"
     guidetolerance="10"
     inkscape:pageopacity="0"
     inkscape:pageshadow="2"
     inkscape:window-width="1135"
     inkscape:window-height="754"
     id="namedview4340"
     showgrid="false"
     inkscape:zoom="1"
     inkscape:cx="284.03403"
     inkscape:cy="254.72914"
     inkscape:window-x="206"
     inkscape:window-y="52"
     inkscape:window-maximized="0"
     inkscape:current-layer="svg4300" />
  <defs
     id="defs4302">
    <linearGradient
       id="linearGradient5209">
      <stop
         id="stop5211"
         offset="0"
         style="stop-color:#ffffff;stop-opacity:1;" />
      <stop
         id="stop5213"
         offset="1"
         style="stop-color:#595959;stop-opacity:0;" />
    </linearGradient>
    <linearGradient
       id="linearGradient5189">
      <stop
         style="stop-color:#ffffff;stop-opacity:1;"
         offset="0"
         id="stop5191" />
      <stop
         style="stop-color:#595959;stop-opacity:0;"
         offset="1"
         id="stop5193" />
    </linearGradient>
    <linearGradient
       id="linearGradient37658">
      <stop
         stop-color="#2f7aff"
         offset="0"
         id="stop37660" />
      <stop
         stop-color="#0000b3"
         offset="1"
         id="stop37662" />
    </linearGradient>
    <linearGradient
       id="linearGradient20137">
      <stop
         stop-color="#00bf00"
         offset="0"
         id="stop20139" />
      <stop
         stop-color="#007500"
         offset="1"
         id="stop20141" />
    </linearGradient>
    <radialGradient
       xlink:href="#linearGradient20137"
       r="188.61865"
       id="radialGradient20143"
       gradientUnits="userSpaceOnUse"
       gradientTransform="scale(0.893959,1.118620)"
       fy="298.37747"
       fx="205.17723"
       cy="297.1124"
       cx="202.06305" />
    <radialGradient
       xlink:href="#linearGradient37658"
       r="112.3373"
       id="radialGradient37664"
       gradientUnits="userSpaceOnUse"
       gradientTransform="scale(0.806632,1.239722)"
       fy="270.08732"
       fx="221.61394"
       cy="270.08732"
       cx="221.61394" />
    <radialGradient
       xlink:href="#linearGradient20137"
       r="188.61865"
       id="radialGradient1902"
       gradientUnits="userSpaceOnUse"
       gradientTransform="scale(0.893959,1.118620)"
       fy="298.37747"
       fx="205.17723"
       cy="297.1124"
       cx="202.06305" />
    <radialGradient
       xlink:href="#linearGradient20137"
       r="188.61865"
       id="radialGradient1904"
       gradientUnits="userSpaceOnUse"
       gradientTransform="scale(0.893959,1.118620)"
       fy="298.37747"
       fx="205.17723"
       cy="297.1124"
       cx="202.06305" />
    <radialGradient
       xlink:href="#linearGradient20137"
       r="188.61865"
       id="radialGradient1906"
       gradientUnits="userSpaceOnUse"
       gradientTransform="scale(0.893959,1.118620)"
       fy="298.37747"
       fx="205.17723"
       cy="297.1124"
       cx="202.06305" />
    <radialGradient
       xlink:href="#linearGradient20137"
       r="188.61865"
       id="radialGradient1908"
       gradientUnits="userSpaceOnUse"
       gradientTransform="scale(0.893959,1.118620)"
       fy="298.37747"
       fx="205.17723"
       cy="297.1124"
       cx="202.06305" />
    <radialGradient
       xlink:href="#linearGradient20137"
       r="188.61865"
       id="radialGradient1910"
       gradientUnits="userSpaceOnUse"
       gradientTransform="scale(0.893959,1.118620)"
       fy="298.37747"
       fx="205.17723"
       cy="297.1124"
       cx="202.06305" />
    <radialGradient
       xlink:href="#linearGradient20137"
       r="188.61865"
       id="radialGradient1912"
       gradientUnits="userSpaceOnUse"
       gradientTransform="scale(0.893959,1.118620)"
       fy="298.37747"
       fx="205.17723"
       cy="297.1124"
       cx="202.06305" />
    <radialGradient
       xlink:href="#linearGradient20137"
       r="188.61865"
       id="radialGradient1914"
       gradientUnits="userSpaceOnUse"
       gradientTransform="scale(0.893959,1.118620)"
       fy="298.37747"
       fx="205.17723"
       cy="297.1124"
       cx="202.06305" />
    <radialGradient
       xlink:href="#linearGradient20137"
       r="188.61865"
       id="radialGradient1916"
       gradientUnits="userSpaceOnUse"
       gradientTransform="scale(0.893959,1.118620)"
       fy="298.37747"
       fx="205.17723"
       cy="297.1124"
       cx="202.06305" />
    <radialGradient
       xlink:href="#linearGradient20137"
       r="188.61865"
       id="radialGradient1918"
       gradientUnits="userSpaceOnUse"
       gradientTransform="scale(0.893959,1.118620)"
       fy="298.37747"
       fx="205.17723"
       cy="297.1124"
       cx="202.06305" />
    <radialGradient
       xlink:href="#linearGradient20137"
       r="188.61865"
       id="radialGradient1920"
       gradientUnits="userSpaceOnUse"
       gradientTransform="scale(0.893959,1.118620)"
       fy="298.37747"
       fx="205.17723"
       cy="297.1124"
       cx="202.06305" />
    <radialGradient
       xlink:href="#linearGradient20137-2"
       r="188.61865"
       id="radialGradient1902-6"
       gradientUnits="userSpaceOnUse"
       gradientTransform="scale(0.893959,1.11862)"
       fy="298.37747"
       fx="205.17723"
       cy="297.1124"
       cx="202.06305" />
    <linearGradient
       id="linearGradient20137-2">
      <stop
         stop-color="#00bf00"
         offset="0"
         id="stop20139-9" />
      <stop
         stop-color="#007500"
         offset="1"
         id="stop20141-8" />
    </linearGradient>
    <linearGradient
       inkscape:collect="always"
       xlink:href="#linearGradient5209"
       id="linearGradient5207"
       x1="244.2338"
       y1="234.70822"
       x2="414.66382"
       y2="405.60483"
       gradientUnits="userSpaceOnUse" />
  </defs>
  <desc
     id="desc4322">wmf2svg</desc>
  <g
     id="g4324"
     transform="matrix(1.1410409,0,0,1.1410409,-41.914574,-36.811674)"
     style="fill:url(#linearGradient5207);stroke:#6a6a6a;stroke-width:14.50079483999999930;stroke-linejoin:round;stroke-miterlimit:4;stroke-opacity:1;stroke-dasharray:none;fill-opacity:1">
    <title
       id="title4326"
       style="fill-opacity:1.0;fill:url(#linearGradient5207)">Layer 1</title>
    <circle
       id="svg_1"
       r="133.41663"
       cy="261"
       cx="283"
       d="m 416.41663,261 c 0,73.68397 -59.73266,133.41663 -133.41663,133.41663 -73.68397,0 -133.41663,-59.73266 -133.41663,-133.41663 0,-73.68397 59.73266,-133.41663 133.41663,-133.41663 73.68397,0 133.41663,59.73266 133.41663,133.41663 z"
       sodipodi:cx="283"
       sodipodi:cy="261"
       sodipodi:rx="133.41663"
       sodipodi:ry="133.41663"
       style="fill:url(#linearGradient5207);stroke:#6a6a6a;stroke-width:10.51671329000000021;stroke-linecap:round;stroke-linejoin:round;stroke-miterlimit:4;stroke-opacity:1;stroke-dasharray:none;fill-opacity:1.0" />
  </g>
  <g
     inkscape:groupmode="layer"
     id="layer1"
     inkscape:label="Layer" />
  <g
     inkscape:groupmode="layer"
     id="layer2"
     inkscape:label="Layer#1">
    <g
       style="fill:#999999;fill-opacity:1;fill-rule:evenodd;stroke:#585858;stroke-opacity:1"
       id="Continents"
       transform="matrix(1.5167966,0,0,1.5167966,-5.1726598,-206.92462)">
      <polyline
         style="fill:#999999;fill-opacity:1;stroke:#585858;stroke-width:0;stroke-linecap:round;stroke-linejoin:round;stroke-miterlimit:4;stroke-opacity:1;stroke-dasharray:none"
         id="svg_3"
         points="191.606 365.541 191.267 366.511 191.144 370.781 190.259 372.746 187.038 373.902 185.647 376.619 185.712 380.586 188.232 382.501 192.032 384.794 196.194 388.875 198.91 392.056 201.068 392.181 201.275 394.522 200.224 396.878 200.617 398.496 200.845 398.676 210.18 396.833 219.178 394.131 227.846 390.499 238.068 384.863 247.126 378.234 247.285 375.548 248.828 371.555 251.658 367.562 253.247 365.197 250.9 363.43 249.644 363.256 246.623 364.576 240.708 365.919 235.872 366.564 231.891 361.948 225.602 362.068 220.95 361.264 215.542 358.999 211.252 359.984 205.355 360.082 203.034 361.19 198.711 359.676 195.851 360.981 193.386 362.99 192.004 364.417 189.792 363.953 186.379 363.654 183.487 361.546 182.946 360.104 183.797 357.584 183.961 355.437 181.973 354.006 178.929 353.176 175.524 353.227 175.131 351.609 176.193 349.602 176.697 346.18 174.688 344.966 172.023 345.897 170.965 347.716 169.014 348.291 166.479 347.435 163.032 344.638 162.655 341.047 163.129 337.797 165.972 333.965 169.722 333.177 172.064 333.493 173.671 334.38 175.283 334.166 177.081 333.227 180.118 333.521 182.995 334.742 185.018 337.757 186.646 340.068 188.436 339.507 187.874 336.639 186.755 334.302 187.265 331.417 188.665 329.05 192.196 326.486 194.327 324.65 194.482 321.239 195.879 317.42 197.631 314.853 198.881 314.488 199.591 312.681 201.33 309.952 202.936 309.2 204.56 310.06 205.798 308.62 208.474 307.125 210.419 306.011 209.68 304.217 206.993 304.637 205.74 304.276 205.553 302.329 203.751 301.815 201.976 303.264 200.018 304.216 199.815 303.327 201.761 301.299 204.959 299.633 206.947 299.424 209.633 298.277 210.49 296.294 209.562 293.771 206.845 290.591 201.952 286.893 199.074 286.585 197.456 286.262 195.824 284.14 190.976 282.07 189.185 282.631 189.208 285.696 189.434 289.649 190.715 291.058 189.661 292.688 189.184 296.127 188.67 299.2 186.672 297.421 185.232 295.112 185.014 292.422 182.671 291.38 179.063 290.541 177.775 288.595 178.09 284.445 180.215 281.157 183.584 277.88 186.606 275.647 187.995 273.844 186.373 272.07 184.23 272.832 181.897 272.139 181.501 269.795 181.289 267.642 179.681 267.669 179.194 270.759 177.755 272.035 176.524 271.154 176.455 267.374 175.537 264.896 173.542 263.842 171.917 261.342 169.233 261.575 167.629 263.053 169.617 264.788 170.016 266.944 172.362 268.711 172.034 271.061 164.781 265.433 160.996 262.082 158.987 259.228 158.971 256.701 158.198 253.322 156.56 252.606 153.531 252.662 152.273 253.403 150.655 253.081 148.873 253.265 148.19 255.09 147.475 256.359 144.051 255.712 141.928 257.172 140.712 259.73 140.013 261.886 138.046 261.575 136.044 259.985 136.788 262.316 139.866 263.701 143.278 264.913 146.164 266.484 147.275 269.503 147.495 272.919 146.312 277.977 144.75 283.217 144.436 287.368 144.484 289.723 145.053 292.213 142.925 294.775 140.987 298.066 139.078 302.404 138.24 307.638 137.613 315.026 138.366 317.707 139.864 322.721 140.974 326.653 142.65 331.319 144.814 333.622 146.629 334.297 144.809 332.171 143.868 329.487 143.31 326.432 142.744 323.753 144.155 323.375 144.902 325.518 146.209 330.717 148.972 336.252 149.735 339.283 149.021 341.278 150.69 343.768 153.925 345.327 158.82 349.752 161.858 350.958 166.556 352.478 171.937 354.727 174.659 356.5 177.188 358.763 179.216 363.23 183.174 364.783 185.709 365.639 188.568 365.248 191.606 365.541" />
      <polyline
         style="fill:#999999;fill-opacity:1;stroke:#585858;stroke-width:0;stroke-linecap:round;stroke-linejoin:round;stroke-miterlimit:4;stroke-opacity:1;stroke-dasharray:none"
         id="svg_4"
         points="181.506 345.213 183.652 344.264 187.072 345.099 191.02 346.303 194.058 346.596 196.775 347.831 196.072 349.262 192.848 349.692 190.158 347.747 186.896 346.172 181.506 345.213" />
      <polyline
         style="fill:#999999;fill-opacity:1;stroke:#585858;stroke-width:0;stroke-linecap:round;stroke-linejoin:round;stroke-miterlimit:4;stroke-opacity:1;stroke-dasharray:none"
         id="svg_5"
         points="197.674 348.698 197.535 350.136 199.866 351.017 202.02 351.33 205.767 350.731 203.242 349.309 203.414 348.425 201.96 347.901 197.674 348.698" />
      <polyline
         style="fill:#999999;fill-opacity:1;stroke:#585858;stroke-width:0;stroke-linecap:round;stroke-linejoin:round;stroke-miterlimit:4;stroke-opacity:1;stroke-dasharray:none"
         id="svg_6"
         points="211.029 296.098 212.297 297.346 214.657 299.274 217.173 301.376 217.915 302.983 213.957 303.071 211.439 300.242 210.517 298.256 211.029 296.098" />
      <polyline
         style="fill:#999999;fill-opacity:1;stroke:#585858;stroke-width:0;stroke-linecap:round;stroke-linejoin:round;stroke-miterlimit:4;stroke-opacity:1;stroke-dasharray:none"
         id="svg_7"
         points="194.186 281.479 191.852 280.786 188.978 280.29 191.822 278.098 191.96 275.021 190.673 273.074 187.257 272.05 184.913 271.008 182.559 267.977 184.501 266.137 187.211 266.836 190.629 268.586 193.877 270.306 195.163 273.166 196.251 274.035 198.939 275.254 200.601 278.12 199.171 279.744 198.682 282.109 196.547 282.494 194.186 281.479" />
      <polyline
         style="fill:#999999;fill-opacity:1;stroke:#585858;stroke-width:0;stroke-linecap:round;stroke-linejoin:round;stroke-miterlimit:4;stroke-opacity:1;stroke-dasharray:none"
         id="svg_8"
         points="207.24 278.714 210.48 280.81 211.931 281.524 215.149 280.556 219.053 279.216 215.279 277.854 214.009 275.88 214.326 272.455 214.609 266.531 216.742 264.507 216.707 261.282 213.271 257.919 209.649 255.28 205.311 253.91 201.726 251.638 197.585 251.534 194.38 252.662 192.783 254.677 190.983 254.89 190.819 253.453 188.298 253.483 185.278 254.802 185.824 256.783 184.436 260.225 185.907 262.363 188.762 264.105 189.992 259.762 191.394 258.12 192.346 261.153 194.854 263.632 197.198 264.675 200.833 267.474 203.915 270.311 204.681 275.707 206.851 276.907 207.24 278.714" />
      <polyline
         style="fill:#999999;fill-opacity:1;stroke:#585858;stroke-width:0;stroke-linecap:round;stroke-linejoin:round;stroke-miterlimit:4;stroke-opacity:1;stroke-dasharray:none"
         id="svg_9"
         points="219.417 263.924 219.832 266.966 220.905 268.588 222.876 269.437 225.371 266.531 226.387 262.895 224.225 261.318 221.895 262.077 220.845 263.519 219.417 263.924" />
      <polyline
         style="fill:#999999;fill-opacity:1;stroke:#585858;stroke-width:0;stroke-linecap:round;stroke-linejoin:round;stroke-miterlimit:4;stroke-opacity:1;stroke-dasharray:none"
         id="svg_10"
         points="257.423 249.036 258.705 252.085 258.556 255.119 259.297 257.639 261.834 259.221 261.657 261.208 259.532 261.941 258.098 261.81 256.157 262.735 260.112 264.476 259.594 266.097 256.001 266.146 256.387 268.14 257.305 270.619 257.358 273.511 258.996 276.172 260.273 278.683 262.27 280.463 261.384 281.702 261.044 282.977 260.36 285.715 258.233 287.363 254.806 285.264 254.607 283.272 252.592 281.52 252.576 278.994 254.331 277.152 254.141 274.479 250.881 273.629 249.273 273.656 248.187 271.873 248.501 267.722 246.125 263.267 243.775 261.687 243.008 258.845 242.407 254.887 239.508 250.601 238.749 247.382 236.401 246.529 233.904 245.124 232.441 244.25 231.555 245.185 232.837 246.594 230.71 248.242 232.672 248.742 234.861 250.335 237.214 252.641 240.1 254.211 237.24 255.516 236.37 257.337 233.844 256.83 230.798 255.274 228.401 251.339 226.583 249.94 222.458 247.863 219.384 246.29 217.218 243.261 219.689 241.791 224.163 240.995 223.616 239.015 221.815 238.502 221.29 239.586 218.217 239.653 218.743 237.654 216.771 236.807 215.497 235.021 211.885 232.731 206.455 229.04 205.372 229.623 204.352 230.894 202.023 231.653 200.556 230.967 197.869 230.474 194.3 230.728 192.517 231.826 188.77 232.426 185.36 231.939 183.012 231.086 182.65 229.296 179.044 229.184 177.632 230.477 173.876 230.727 170.474 231.504 170.502 233.466 168.718 234.565 164.957 235.004 163.549 236.108 164.099 237.9 162.49 238.841 158.019 239.447 157.688 241.071 157.538 243.075 156.106 243.974 153.63 246.547 151.848 248.372 149.557 250.223 146.695 250.802 147.407 249.721 148.804 247.541 148.42 246.273 146.116 246.323 144.842 244.538 143.728 242.738 145.496 240.752 147.435 239.101 149.047 238.885 150.482 236.158 150.067 233.117 152.213 232.167 155.22 230.687 155.376 227.276 153.736 225.834 152.121 225.324 160.468 222.33 167.484 220.375 174.294 219.055 182.822 218.08 190.406 217.89 199.289 218.473 210.317 220.354 221.098 223.606 228.444 226.775 236.028 230.779 242.436 234.965 248.451 239.478 253.729 244.446 257.274 248.18 257.423 249.036" />
      <polyline
         style="fill:#999999;fill-opacity:1;stroke:#585858;stroke-width:0;stroke-linecap:round;stroke-linejoin:round;stroke-miterlimit:4;stroke-opacity:1;stroke-dasharray:none"
         id="svg_11"
         points="236.587 260.027 234.981 260.78 235.696 262.369 237.365 264.859 237.915 266.65 238.668 269.331 241.212 271.451 242.977 271.599 242.263 270.009 240.064 268.066 239.881 266.961 242.051 267.857 244.408 269.059 246.555 269.75 246.541 267.949 246.616 267.767 246.692 267.585 246.74 267.386 246.743 267.199 246.751 266.821 246.714 266.455 246.632 266.1 246.571 265.833 246.513 265.682 246.494 265.593 245.057 264.736 240.553 262.843 238.571 261.951 236.587 260.027" />
      <polyline
         style="fill:#999999;fill-opacity:1;stroke:#585858;stroke-width:0;stroke-linecap:round;stroke-linejoin:round;stroke-miterlimit:4;stroke-opacity:1;stroke-dasharray:none"
         id="svg_12"
         points="263.598 256.088 263.44 258.469 264.194 261.149 263.475 262.607 262.241 262.64 263.328 264.422 265.515 267.235 265.728 271.028 263.766 270.528 262.502 270.732 262.201 275.043 262.43 278.809 261.909 280.618 262.115 283.873 261.056 285.692 260.397 288.026 261.488 291.26 263.331 295.536 263.193 298.614 263.091 304.918 263.884 310.635 265.371 315.299 267.749 320.481 270.837 323.854 274.445 324.693 276.543 321.387 277.967 319.226 279.918 318.345 280.392 312.54 280.449 307.162 280.216 301.64 279.526 295.148 278.064 287.526 276.248 281.018 274.202 275.243 271.648 269.495 269.03 264.394 265.85 259.284 263.598 256.088" />
    </g>
  </g>
</svg>
