<?xml version="1.0" encoding="UTF-8" standalone="no"?>
<svg
   xmlns:dc="http://purl.org/dc/elements/1.1/"
   xmlns:cc="http://creativecommons.org/ns#"
   xmlns:rdf="http://www.w3.org/1999/02/22-rdf-syntax-ns#"
   xmlns:svg="http://www.w3.org/2000/svg"
   xmlns="http://www.w3.org/2000/svg"
   xmlns:sodipodi="http://sodipodi.sourceforge.net/DTD/sodipodi-0.dtd"
   xmlns:inkscape="http://www.inkscape.org/namespaces/inkscape"
   width="640"
   height="480"
   id="svg3037"
   version="1.1"
   inkscape:version="0.48.4 r9939"
   sodipodi:docname="blue-skyline.svg">
  <defs
     id="defs3049" />
  <sodipodi:namedview
     pagecolor="#ffffff"
     bordercolor="#666666"
     borderopacity="1"
     objecttolerance="10"
     gridtolerance="10"
     guidetolerance="10"
     inkscape:pageopacity="0"
     inkscape:pageshadow="2"
     inkscape:window-width="1393"
     inkscape:window-height="876"
     id="namedview3047"
     showgrid="false"
     inkscape:zoom="0.49166667"
     inkscape:cx="320"
     inkscape:cy="240"
     inkscape:window-x="47"
     inkscape:window-y="24"
     inkscape:window-maximized="1"
     inkscape:current-layer="svg3037" />
  <title
     id="title3039">RED SKYLINE</title>
  <metadata
     id="metadata7">image/svg+xml<rdf:RDF>
  <cc:Work
     rdf:about="">
    <dc:format>image/svg+xml</dc:format>
    <dc:type
       rdf:resource="http://purl.org/dc/dcmitype/StillImage" />
    <dc:title>RED SKYLINE</dc:title>
  </cc:Work>
</rdf:RDF>
</metadata>
  <g
     id="g3042"
     transform="translate(-2.0338983,77.288136)">
    <title
       id="title3044">Layer 1</title>
    <path
       d="m 20.496094,263.91437 c 0,-61.19855 0.05928,-76.68506 0.293667,-76.7106 0.161552,-0.0176 0.694206,-0.0847 1.183672,-0.14896 0.658077,-0.0864 0.872396,-0.0531 0.822353,0.12778 -0.03721,0.13455 0.146194,0.33752 0.407564,0.45108 0.268595,0.1167 0.439827,0.35156 0.393951,0.54037 -0.0893,0.36679 0.749794,0.48563 1.010492,0.1431 0.07985,-0.10495 0.03324,-0.19086 -0.103647,-0.19086 -0.136852,0 -0.2488,-0.0858 -0.2488,-0.19079 0,-0.10495 0.377182,-0.1908 0.838182,-0.1908 0.725126,0 0.818455,0.0504 0.69219,0.37351 -0.118032,0.302 0.0012,0.40451 0.622755,0.5353 0.537594,0.1131 0.809481,0.30204 0.904324,0.6283 0.185247,0.63733 0.800777,0.5972 0.893635,-0.0582 0.04087,-0.28866 0.199497,-0.52493 0.352413,-0.52511 0.188608,-2.5e-4 0.278107,0.44485 0.278107,1.38345 0,1.25656 0.04322,1.38379 0.469873,1.38379 0.311108,0 0.49575,-0.14792 0.546331,-0.43768 0.05713,-0.32721 0.185549,-0.40952 0.50889,-0.32615 0.237844,0.0613 0.497971,0.0254 0.578091,-0.0799 0.09595,-0.12607 0.343508,-0.11817 0.72563,0.0232 0.318974,0.11798 0.630955,0.17322 0.693268,0.12259 0.192436,-0.15628 0.209576,-1.37451 0.02665,-1.89474 -0.161621,-0.45948 -0.126904,-0.48804 0.501732,-0.41312 0.419361,0.05 0.787537,-0.0293 0.971375,-0.2092 0.262142,-0.25653 0.348042,-0.2475 0.750225,0.0792 0.575001,0.46698 0.582363,0.742 0.01664,0.62185 -0.560982,-0.11914 -0.869267,0.67563 -0.407558,1.05066 0.259247,0.21048 0.40242,0.21237 0.800842,0.0103 0.374123,-0.18973 0.609516,-0.19584 1.028336,-0.0267 1.027229,0.41501 4.029762,0.58539 5.359699,0.30426 0.667049,-0.14105 0.837006,-0.27688 0.899918,-0.71923 0.04268,-0.2999 -0.110668,-0.82926 -0.340752,-1.17627 -0.378963,-0.57151 -0.384136,-0.66327 -0.05458,-0.97446 0.200069,-0.18894 0.429409,-0.49378 0.509598,-0.67743 0.178825,-0.40949 0.533356,-0.43317 0.715446,-0.0477 0.07438,0.15747 0.244263,0.28626 0.377552,0.28626 0.311039,0 0.317055,-0.70328 0.0074,-0.85868 -0.407127,-0.20434 -0.255352,-0.47711 0.265503,-0.47711 0.454144,0 0.489433,-0.0794 0.381283,-0.85858 -0.141659,-1.02081 -0.503819,-1.43128 -1.262955,-1.43128 -0.307243,0 -0.558598,-0.0858 -0.558598,-0.19079 0,-0.10495 0.203766,-0.1908 0.452866,-0.1908 0.249069,0 0.657475,-0.21133 0.907585,-0.46954 0.399364,-0.41235 0.507614,-0.43814 0.889267,-0.21146 0.380947,0.22623 0.393246,0.2984 0.09981,0.58561 -0.292423,0.2861 -0.283886,0.35766 0.06759,0.56643 0.471653,0.28006 0.527275,1.19641 0.117092,1.92761 -0.254917,0.45438 -0.224434,0.5485 0.286472,0.88446 0.480293,0.31586 0.779503,0.35556 1.871159,0.24845 0.714706,-0.0702 1.546501,-0.25629 1.848503,-0.41364 0.810322,-0.4223 0.890545,-0.16668 0.166931,0.53177 l -0.634789,0.61264 1.200443,0.47971 c 1.110241,0.44363 1.229248,0.45627 1.583912,0.16821 0.299515,-0.24322 0.322971,-0.37057 0.107174,-0.58179 -0.151974,-0.14868 -0.258278,-0.43209 -0.236298,-0.62973 0.106739,-0.9588 -0.04282,-1.4089 -0.468258,-1.4089 -0.583302,0 -1.915688,-0.55225 -1.915688,-0.79404 0,-0.11917 0.35043,-0.14554 0.911312,-0.0686 0.86013,0.11804 0.925396,0.0922 1.162533,-0.46027 0.270645,-0.63064 0.508255,-0.7019 1.256165,-0.37683 0.335476,0.14585 0.553928,0.14817 0.726772,0.008 0.332855,-0.27033 2.265045,-0.0464 2.923157,0.3388 0.321896,0.18839 0.471886,0.43024 0.395329,0.63754 -0.06789,0.18363 -0.01055,0.3339 0.127373,0.3339 0.137962,0 0.250786,-0.11905 0.250786,-0.26456 0,-0.32169 1.322205,-0.51224 2.037647,-0.2937 0.680931,0.20801 1.186295,-0.23483 0.667221,-0.58472 -0.195431,-0.13171 -0.355305,-0.41147 -0.355305,-0.62161 0,-0.32282 -0.109425,-0.36438 -0.704857,-0.26764 -0.53104,0.0862 -0.704895,0.0443 -0.704895,-0.17001 0,-0.19641 -0.210957,-0.27143 -0.681435,-0.24234 -0.843998,0.0523 -1.478619,-0.34992 -1.385723,-0.87815 0.05626,-0.31976 0.209072,-0.38604 0.774933,-0.33627 0.387665,0.0341 0.88987,0.19769 1.116016,0.3635 0.534569,0.39199 0.534569,0.13989 0,-0.31192 -0.382927,-0.32373 -0.815968,-0.44989 -2.469883,-0.71964 -0.842785,-0.13742 -1.027695,-0.40384 -0.549759,-0.79199 0.315849,-0.25656 0.466209,-0.27023 0.846954,-0.0772 0.73336,0.37201 0.939445,0.28354 0.786495,-0.33761 -0.105495,-0.42841 -0.05408,-0.57248 0.204403,-0.57248 0.504894,0 1.252335,0.74643 1.167004,1.16552 -0.05535,0.27207 0.06819,0.36109 0.501297,0.36109 0.377148,0 0.61694,0.13116 0.697601,0.38162 0.165012,0.51242 0.871723,0.49789 0.871723,-0.0179 0,-0.23905 -0.188744,-0.43961 -0.469875,-0.49933 -0.258476,-0.0549 -0.469906,-0.16861 -0.469906,-0.25275 0,-0.0841 -0.06096,-0.28198 -0.135441,-0.43961 -0.09188,-0.19451 0.03431,-0.30691 0.392609,-0.34954 0.33403,-0.0398 0.728622,-0.35639 1.073708,-0.86155 0.499012,-0.73056 0.51363,-0.82458 0.171402,-1.1026 -0.315277,-0.25601 -0.324654,-0.35226 -0.05979,-0.61154 0.206284,-0.20184 0.344749,-1.0267 0.402519,-2.39743 l 0.08806,-2.08978 0.678143,-0.19199 c 0.372978,-0.10559 0.691349,-0.26947 0.707481,-0.36416 0.01616,-0.0947 0.05525,-0.4083 0.08691,-0.6969 0.03159,-0.28864 0.171669,-1.53589 0.311275,-2.77173 0.139572,-1.23584 0.192741,-2.66562 0.118099,-3.17737 -0.134399,-0.92184 0.09659,-3.18176 0.307682,-3.01028 0.06033,0.049 0.150898,1.5375 0.201275,3.30777 0.05038,1.77023 0.098,3.25061 0.105865,3.2897 0.0079,0.0391 0.177586,-0.039 0.377216,-0.17355 0.244026,-0.16449 0.316452,-0.41611 0.221176,-0.76844 -0.08234,-0.30444 -0.03072,-0.57965 0.123173,-0.65686 0.180069,-0.0904 0.21331,-0.52377 0.103848,-1.35394 -0.112049,-0.84973 -0.08126,-1.22098 0.10136,-1.22098 0.144279,0 0.26231,-0.17288 0.26231,-0.38424 0,-0.21131 0.132118,-0.55741 0.293701,-0.76911 0.242043,-0.3172 0.231766,-0.41681 -0.05875,-0.56692 -0.272896,-0.14096 -0.206623,-0.18274 0.293732,-0.185 0.355309,-0.002 0.633575,-0.0673 0.618256,-0.14603 -0.01533,-0.0787 -0.01371,-0.27194 0.0036,-0.42935 0.02797,-0.25442 0.05666,-0.25442 0.259125,0 0.194656,0.2446 0.228333,0.23767 0.231422,-0.0477 0.0019,-0.18368 0.155937,-0.33395 0.342125,-0.33395 0.490685,0 0.685608,-0.35541 0.366325,-0.66788 -0.372704,-0.36472 -0.09733,-0.66788 0.606628,-0.66788 0.563538,0 0.568718,-0.0127 0.194054,-0.47705 -0.315308,-0.39087 -0.32486,-0.47702 -0.0527,-0.47702 0.182632,0 0.770836,-0.34247 1.307152,-0.76098 0.536316,-0.41852 1.039635,-0.67612 1.118538,-0.57248 0.239899,0.31531 0.770432,0.21039 0.73568,-0.14545 -0.02312,-0.23605 0.139542,-0.33395 0.554733,-0.33395 0.482071,0 0.598625,0.10272 0.650314,0.57248 0.09888,0.89987 0.564949,2.19445 0.789925,2.19445 0.11245,0 0.204399,-0.11828 0.204399,-0.26291 0,-0.14456 0.167168,-0.37545 0.371368,-0.51312 0.216103,-0.14566 0.328087,-0.43408 0.26786,-0.69 -0.12455,-0.52893 0.452698,-1.03043 0.666107,-0.57874 0.07488,0.15845 0.11232,0.40424 0.08328,0.54624 -0.06749,0.32904 0.263618,0.9794 0.591431,1.16168 0.169449,0.0942 0.155807,0.14114 -0.0416,0.14313 -0.161522,0.002 -0.293739,0.17462 -0.293739,0.38455 0,0.20993 0.07993,0.38165 0.177658,0.38165 0.09759,0 0.324852,0.27906 0.504921,0.62015 0.470917,0.89221 0.765388,1.16489 0.969055,0.89731 0.101494,-0.13336 0.222351,-0.0352 0.311409,0.25305 0.202324,0.65463 0.988274,0.85355 4.263237,1.07867 3.834671,0.26362 6.946968,0.57102 7.232635,0.71442 0.156013,0.0783 0.180473,1.94425 0.07185,5.48108 -0.140678,4.58121 -0.113998,5.41794 0.182961,5.74399 0.307182,0.33722 0.306641,0.41855 -0.0045,0.6987 -0.495377,0.44607 -0.323509,1.37845 0.270546,1.46768 0.258446,0.0388 0.558228,0.19534 0.666176,0.34778 0.107948,0.15243 0.42514,0.34894 0.704895,0.43667 0.468292,0.14689 0.474815,0.17057 0.0824,0.29911 -0.298508,0.0978 -0.531204,0.0178 -0.776947,-0.26709 -0.458885,-0.53214 -1.021614,-0.52008 -1.05677,0.0226 -0.18679,2.88281 -0.159164,3.97846 0.09847,3.90952 0.154999,-0.0414 0.315514,-0.26178 0.35685,-0.48966 0.04772,-0.26379 0.242584,-0.41443 0.53598,-0.41443 0.470444,0 0.535706,-0.0835 0.783531,-1.00177 0.114738,-0.42535 0.270615,-0.52478 0.822319,-0.52478 0.374466,0 0.719688,-0.0947 0.767273,-0.2106 0.04752,-0.11575 0.221413,0.21729 0.386429,0.74017 l 0.29998,0.95066 1.199806,0.0936 c 1.300293,0.10151 1.825783,0.45899 1.825783,1.24231 0,0.37018 0.08839,0.43073 0.481201,0.32947 0.523811,-0.13504 1.163437,0.18701 1.163437,0.58585 0,0.13751 -0.211456,0.30453 -0.469902,0.37112 -0.684593,0.17652 -0.574768,0.47641 0.176239,0.48136 l 0.646149,0.004 -0.587402,0.37604 c -0.497734,0.31857 -0.533562,0.40487 -0.234985,0.56521 0.193848,0.10416 0.731979,0.19068 1.195839,0.19226 0.673439,0.002 0.897263,-0.0932 1.110947,-0.47412 0.201172,-0.35852 0.458679,-0.48242 1.036331,-0.49881 1.392786,-0.0394 2.015406,-0.14017 2.735756,-0.44275 1.09401,-0.45941 1.39164,-0.37777 1.70345,0.4675 0.22645,0.61371 0.36895,0.74405 0.71612,0.65454 0.23835,-0.0615 1.02686,0.10895 1.75225,0.37863 0.72533,0.26972 1.45335,0.49042 1.61776,0.49042 0.40087,0 0.56165,0.3909 0.4158,1.01071 -0.18949,0.805 0.0616,1.14811 0.65239,0.8913 0.42037,-0.18274 0.46817,-0.32349 0.33191,-0.97839 -0.13416,-0.64478 -0.0821,-0.80878 0.33077,-1.04371 0.26947,-0.15325 0.57772,-0.55389 0.68507,-0.89028 0.24486,-0.7674 0.74361,-0.78348 1.21358,-0.0392 0.19876,0.31485 0.38347,0.60468 0.41036,0.64404 0.0685,0.10007 1.24046,0.0898 1.36575,-0.012 0.13988,-0.11359 1.02915,-22.55197 1.40522,-35.45697 0.075,-2.57141 0.19406,-4.99716 0.26477,-5.39075 0.13906,-0.77456 0.5548,-0.98681 0.56071,-0.28625 0.002,0.23617 0.10278,0.55673 0.22403,0.71246 0.17503,0.22482 0.29172,0.14627 0.56677,-0.38165 0.19055,-0.36563 0.56549,-0.77277 0.83334,-0.90491 0.26772,-0.13205 0.48685,-0.41113 0.48685,-0.62018 0,-0.3536 0.15903,-0.37982 2.29078,-0.37787 3.31523,0.003 4.05299,0.12958 4.05299,0.69544 0,0.31479 0.1874,0.51468 0.60265,0.64294 0.83691,0.2584 2.62311,0.23316 2.831,-0.0401 0.16186,-0.21267 0.28104,-2.99069 0.6961,-16.23222 0.0946,-3.0174 0.24816,-5.48613 0.34125,-5.48613 0.23842,0 0.54929,1.12961 0.49881,1.8128 l -0.0423,0.57247 0.36088,-0.52121 c 0.32232,-0.4655 0.48719,-0.51894 1.54113,-0.49968 0.9335,0.0171 1.30124,-0.0707 1.75944,-0.42034 0.42488,-0.3242 0.50116,-0.48112 0.28641,-0.58894 -0.17087,-0.0857 -0.37258,-0.0314 -0.48409,0.13059 -0.10527,0.15269 -0.42924,0.27758 -0.72001,0.27758 -0.29085,0 -0.63788,0.0887 -0.77138,0.1971 -0.13348,0.10839 -0.41365,0.14379 -0.62254,0.0787 -0.34079,-0.10624 -0.36768,-0.63245 -0.26053,-5.11077 0.14229,-5.95096 0.13919,-6.07979 -0.15097,-6.31546 -0.37708,-0.30626 -0.26215,-0.43628 0.49417,-0.55913 0.56131,-0.0912 0.80874,-0.28637 1.11606,-0.8806 0.29373,-0.56811 0.53012,-0.76399 0.92347,-0.76542 0.29077,-0.001 0.53028,0.10541 0.53221,0.23659 0.002,0.16033 0.0602,0.17141 0.17624,0.0338 0.32761,-0.38857 1.04016,-0.46366 1.77996,-0.18752 0.4082,0.15233 1.10159,0.34906 1.54084,0.43718 0.98613,0.19777 1.48581,0.9793 0.7291,1.14003 -0.60071,0.12755 -0.61295,0.43703 -0.0173,0.43703 0.83214,0 1.25896,0.55676 1.08682,1.41763 -0.0854,0.42726 -0.14901,0.90563 -0.14122,1.06307 0.008,0.15742 0.009,0.61288 0.002,1.01218 -0.009,0.52554 0.13698,0.83242 0.5271,1.11175 0.29643,0.21222 0.42816,0.34204 0.2928,0.2885 -0.56205,-0.22229 -0.79765,0.25407 -0.93356,1.88731 -0.2928,3.51932 -0.15843,4.56476 0.60783,4.72748 0.4529,0.0962 0.52691,-0.0656 0.76828,-1.68059 0.0471,-0.31483 0.10143,0.77442 0.12078,2.42058 0.0221,1.87962 -0.0651,3.19283 -0.23458,3.5302 -0.38723,0.77125 -0.80471,15.63199 -0.44886,15.98022 0.14384,0.14078 1.44104,0.40341 2.88395,0.5839 1.4424,0.18035 2.77428,0.37527 2.95966,0.43304 0.28923,0.0901 0.32472,1.77969 0.24937,11.87634 -0.0741,9.92523 -0.0359,11.82218 0.24346,12.09635 0.18222,0.17886 0.48785,0.27639 0.67907,0.21679 0.19278,-0.0601 0.4833,0.0489 0.65207,0.24451 0.16744,0.19412 1.56876,0.8056 3.11419,1.3588 2.49653,0.89364 2.82467,1.06616 2.94311,1.54693 0.10956,0.44504 0.27034,0.55179 0.90581,0.60144 l 0.77257,0.0604 0.0245,9.44567 c 0.0134,5.19513 0.0399,9.5478 0.0588,9.6727 0.0188,0.12482 0.43072,0.25364 0.91534,0.2862 0.80545,0.0542 0.89276,0.11654 1.01712,0.72711 0.23256,1.14197 0.425,0.24493 0.54713,-2.55066 0.0636,-1.45532 0.14734,-2.66992 0.18612,-2.6991 0.0388,-0.0292 0.96919,-0.11331 2.06762,-0.18689 1.09839,-0.0736 2.57862,-0.18994 3.28935,-0.25863 l 1.29223,-0.12476 0.11749,-2.49972 c 0.0789,-1.67734 0.22041,-2.60019 0.43033,-2.80521 0.19465,-0.19009 0.7715,-0.32709 1.5272,-0.36264 1.18112,-0.0556 1.21642,-0.074 1.28794,-0.67664 0.0578,-0.48651 0.35226,-0.80386 1.37254,-1.47885 0.71437,-0.47265 1.36851,-0.86407 1.45361,-0.86978 0.085,-0.006 0.63042,-0.0505 1.21198,-0.0995 1.37254,-0.11557 1.59106,-0.11298 2.64642,0.0313 1.36662,0.18683 1.58273,-0.0777 1.58273,-1.93763 0,-1.42446 0.0537,-1.61834 0.52213,-1.88482 0.28727,-0.16339 0.93081,-0.29709 1.43022,-0.29709 0.78348,0 0.9427,-0.0749 1.1619,-0.5466 0.35617,-0.7663 1.03788,-1.04782 2.42709,-1.00217 0.84807,0.0279 1.28673,-0.0482 1.50403,-0.26086 0.25273,-0.24735 0.62161,-0.27771 2.09344,-0.1724 0.98256,0.0703 2.05089,0.21149 2.37393,0.31369 0.32305,0.10227 1.02041,0.21866 1.54967,0.25861 l 0.96239,0.0727 0.15272,-2.43234 c 0.084,-1.33783 0.15319,-3.9939 0.15372,-5.90243 5.3e-4,-1.90857 0.10117,-3.68424 0.22369,-3.94593 0.14983,-0.32007 0.43529,-0.49591 0.8718,-0.5372 0.86345,-0.0816 0.96797,-0.45358 0.99661,-3.5469 l 0.0234,-2.5315 0.76362,-0.26919 c 0.41997,-0.14808 0.95368,-0.31733 1.18596,-0.37607 0.34367,-0.0869 0.39356,-0.23184 0.26753,-0.77719 -0.10156,-0.43991 -0.065,-0.67038 0.10626,-0.67038 0.14365,0 0.26114,0.21804 0.26114,0.48465 0,0.90561 0.89511,1.89645 3.85698,4.26944 1.62616,1.30279 2.95709,2.46209 2.95757,2.57608 8.7e-4,0.20224 1.74136,0.87515 2.26362,0.87515 0.14432,0 0.39624,-0.13095 0.55985,-0.29108 0.26544,-0.2597 0.34468,-0.25628 0.73683,0.0319 0.2581,0.1897 1.18912,0.40818 2.25703,0.52958 l 1.8178,0.20663 -0.0928,9.68424 -0.0928,9.68417 0.68023,0.0202 c 0.37398,0.0111 0.97919,0.004 1.34472,-0.016 0.36558,-0.0199 0.87381,0.11759 1.1295,0.30548 0.34138,0.25092 1.00729,0.36942 2.50721,0.44614 2.29993,0.1177 2.62983,0.22488 2.62983,0.85403 0,0.7771 0.40579,0.85343 4.54487,0.85489 3.12608,0.001 3.96057,-0.0526 4.05918,-0.26141 0.0683,-0.14453 0.20816,-0.84964 0.3108,-1.56702 l 0.18652,-1.30423 0.0345,1.14493 c 0.0295,0.97879 0.41626,2.09936 0.5269,1.52661 0.0587,-0.30399 0.12166,-0.90457 0.16509,-1.57431 0.0644,-0.99469 0.5101,-0.71378 0.5101,0.32147 0,1.44187 0.29406,1.89923 1.20759,1.87814 0.5347,-0.0124 0.8611,0.10486 1.09757,0.39414 0.26927,0.32935 0.56898,0.41171 1.49818,0.41171 2.03758,0 2.07051,0.044 2.07051,2.77365 0,2.19962 0.0331,2.37851 0.44115,2.37851 0.24258,0 0.57564,-0.13168 0.74011,-0.29257 0.26631,-0.26068 0.35282,-0.25265 0.79234,0.0735 0.27135,0.20132 0.72587,0.42325 1.00998,0.49313 0.2842,0.0699 0.5774,0.28247 0.65154,0.47229 0.10316,0.26407 0.47554,0.37409 1.58501,0.46826 0.79759,0.0677 1.53549,0.0538 1.63967,-0.0308 0.10425,-0.0847 0.30341,-4.40005 0.44268,-9.58975 0.20932,-7.80176 0.31242,-9.48544 0.59533,-9.72208 0.28756,-0.24051 1.48507,-0.29168 7.50116,-0.32034 3.93744,-0.0188 7.72332,-0.0914 8.41301,-0.16135 1.01929,-0.10345 1.49189,-0.0454 2.52457,0.31031 0.69876,0.24066 1.35083,0.52792 1.44916,0.63836 0.0983,0.11051 0.10797,4.25824 0.0216,9.21723 -0.10718,6.15136 -0.08,9.01632 0.0853,9.01632 0.1601,0 0.30097,-2.73925 0.41452,-8.06222 0.10599,-4.96124 0.26401,-8.15396 0.41095,-8.30072 0.13126,-0.13123 0.64493,-0.23856 1.14154,-0.23856 1.04102,0 1.38913,-0.35214 1.38913,-1.40496 0,-1.06595 0.43827,-1.26615 2.77759,-1.26917 2.4191,-0.003 3.03519,-0.11279 3.21485,-0.57254 0.17337,-0.44366 2.1452,-0.65308 5.52038,-0.5863 4.36682,0.0864 4.5737,0.10605 4.65323,0.44122 0.13913,0.58655 1.10159,0.87509 3.35394,1.00552 1.21729,0.0705 2.41486,0.17398 2.66135,0.23008 0.43375,0.0986 0.44354,0.3291 0.30759,7.23104 -0.0772,3.92103 -0.0597,7.16968 0.039,7.21918 0.15851,0.0796 0.52502,-3.50619 0.84686,-8.28677 0.35941,-5.33722 0.80826,-7.63947 1.59256,-8.16812 0.17166,-0.11563 1.87122,-0.21778 4.05216,-0.24347 2.06622,-0.0243 3.88885,-0.0829 4.05029,-0.13025 0.19433,-0.0569 0.29367,-0.50949 0.29367,-1.33774 0,-1.49326 0.27621,-1.47006 0.32117,0.0269 0.0172,0.57382 0.11822,1.1148 0.22436,1.20218 0.10626,0.0874 1.85031,0.28769 3.87579,0.44513 l 3.68277,0.28622 0.3281,0.76331 c 0.18039,0.41976 0.39227,1.7069 0.47082,2.86029 l 0.1427,2.09698 1.2923,0.14362 c 0.71069,0.079 1.5383,0.19052 1.83911,0.24789 l 0.54678,0.10428 -0.0596,11.81128 c -0.0624,12.37888 -0.0597,12.41516 0.93308,12.4042 0.21033,-0.002 0.64676,-0.16918 0.96979,-0.37072 l 0.5874,-0.3664 0.16427,-8.33969 c 0.0903,-4.58679 0.21921,-8.45587 0.28635,-8.59793 0.0797,-0.16864 0.52234,-0.2583 1.27542,-0.2583 0.69501,0 1.2605,-0.10483 1.42298,-0.26382 0.17422,-0.17051 0.29602,-1.48688 0.34433,-3.72297 0.0413,-1.90261 0.14761,-3.51821 0.23632,-3.5903 0.0889,-0.0721 0.15036,1.51526 0.13687,3.52753 -0.0136,2.01224 0.0423,3.74655 0.12415,3.85406 0.0818,0.10755 0.66489,0.1955 1.29578,0.1955 0.63089,0 1.21902,0.0947 1.307,0.2103 0.088,0.11566 0.14661,0.95291 0.13016,1.86053 -0.036,1.98831 0.13052,2.30203 0.98227,1.84879 0.50836,-0.27054 0.80115,-0.28839 1.93631,-0.11795 0.73566,0.11044 1.45743,0.13806 1.60403,0.0614 0.43152,-0.22589 1.41343,-0.19681 1.79364,0.0531 0.19388,0.12738 0.95765,0.27942 1.69742,0.33789 0.73972,0.0585 1.45334,0.16074 1.58597,0.22726 0.15399,0.0773 0.24097,1.8035 0.24097,4.78483 l 0,4.66391 1.02853,0 c 0.56567,0 1.1311,-0.10737 1.25647,-0.23853 0.41257,-0.43167 1.23932,-4.65161 1.23932,-6.32565 0,-1.62461 0.006,-1.64118 0.58902,-1.64118 0.5882,0 0.58881,0.002 0.43991,1.38346 -0.082,0.76089 -0.24142,1.46502 -0.35406,1.56472 -0.4228,0.37388 -0.21027,1.2645 0.40402,1.69364 0.6333,0.44244 0.75235,0.95004 0.45889,1.95798 -0.21625,0.74285 0.30994,1.2239 1.33865,1.2239 0.40055,0 0.92926,0.14771 1.17487,0.32825 0.33933,0.2493 0.90952,0.33374 2.37192,0.35107 1.05893,0.0126 2.16974,0.12909 2.4685,0.25888 0.29865,0.12989 0.69629,0.18833 0.8837,0.12995 0.18726,-0.0584 0.51972,0.0638 0.73865,0.27157 0.35037,0.33234 0.69525,0.37735 2.8718,0.37507 3.16894,-0.003 3.48608,-0.0754 3.64724,-0.82941 0.0705,-0.32956 0.20523,-2.65814 0.29947,-5.17465 l 0.17145,-4.57547 0.70483,-0.17578 c 0.3877,-0.0967 1.03809,-0.29175 1.44522,-0.43357 0.40726,-0.14181 1.00864,-0.25781 1.33664,-0.25781 0.52759,0 0.61469,-0.10007 0.75672,-0.86957 0.11212,-0.60708 0.32507,-0.95709 0.70544,-1.15951 0.29965,-0.15949 0.57752,-0.51612 0.61743,-0.79261 0.0816,-0.56475 0.62305,-0.75399 2.24598,-0.78491 l 0.99847,-0.019 0.0506,-4.81824 c 0.0279,-2.65008 0.0542,-5.39306 0.0587,-6.09564 0.004,-0.70252 0.1138,-1.3559 0.24311,-1.45197 0.20804,-0.15454 1.74045,-0.40847 4.699,-0.77865 0.88498,-0.11075 0.94675,-0.16135 1.05738,-0.86597 0.0646,-0.41162 0.23654,-0.78021 0.3822,-0.81906 0.38461,-0.10269 0.595,0.48618 0.32184,0.90082 -0.12873,0.19537 -0.23414,0.39383 -0.23414,0.44095 0,0.24444 1.61347,0.35495 7.23957,0.49566 3.4902,0.0873 6.28354,0.23691 6.41482,0.34351 0.14713,0.11948 0.24942,4.38406 0.27887,11.61529 l 0.0464,11.42643 1.78406,-0.0124 c 0.9812,-0.007 1.94281,-0.062 2.13693,-0.1225 0.27417,-0.0855 0.38916,-0.63275 0.51608,-2.45658 0.0898,-1.29064 0.22058,-2.39328 0.29071,-2.45034 0.0701,-0.057 1.07752,-0.15097 2.23868,-0.2088 1.47312,-0.0733 2.17438,-0.18811 2.32022,-0.37983 0.17868,-0.23474 0.31418,-0.22436 0.93103,0.0716 0.53678,0.2575 1.45804,0.37939 3.59296,0.47525 l 2.87106,0.12896 0.1427,2.48069 c 0.0784,1.36435 0.15769,2.50885 0.17615,2.54327 0.0184,0.0344 0.37717,0.0434 0.79712,0.02 1.59799,-0.0893 3.46567,0.0205 3.46567,0.20367 0,0.10492 -0.44934,0.20157 -0.99863,0.21469 l -0.99857,0.0239 1.05738,0.15277 c 0.58142,0.084 1.49441,0.15918 2.02877,0.16696 0.75907,0.011 1.05353,0.11572 1.34641,0.47885 0.24472,0.30332 0.64169,0.48551 1.14307,0.52475 l 0.76815,0.0601 0.0638,3.76871 c 0.0387,2.29577 0.15359,3.76874 0.29367,3.76874 0.12643,0 0.22995,-0.25461 0.22995,-0.56574 0,-0.67651 0.53079,-0.95978 1.80548,-0.9635 1.36636,-0.004 1.90033,-0.18011 2.05411,-0.67773 0.0771,-0.24945 0.35046,-0.54489 0.6073,-0.65656 0.48132,-0.20926 0.64978,-0.76208 0.23217,-0.76208 -0.12921,0 -0.23492,-0.17176 -0.23492,-0.38163 0,-0.20996 0.15652,-0.38168 0.34796,-0.38168 0.37109,0 0.41797,-0.12384 0.83011,-2.19443 0.37231,-1.87005 0.94144,-4.3374 1.07486,-4.65936 0.34347,-0.82922 0.86655,1.23871 2.07852,8.21668 0.13342,0.76831 0.23782,0.89883 0.78684,0.98404 0.34823,0.0541 0.81228,0.0204 1.03128,-0.0748 0.21899,-0.0952 0.77521,-0.17313 1.23605,-0.17313 0.72653,0 0.83771,0.0605 0.83771,0.45584 0,0.36917 0.15506,0.47943 0.81592,0.58011 0.44888,0.0684 0.90695,0.25641 1.01818,0.41785 0.1688,0.24484 0.26987,0.20981 0.60953,-0.21124 0.32016,-0.39676 0.34745,-0.56333 0.12784,-0.77823 -0.21777,-0.21308 -0.20822,-0.34354 0.043,-0.59076 0.25137,-0.24732 0.25769,-0.33499 0.0287,-0.39759 -0.1615,-0.0441 -0.29373,-0.24057 -0.29373,-0.43649 0,-0.19595 -0.17334,-0.43506 -0.38541,-0.53143 -0.21194,-0.0964 -0.31033,-0.27377 -0.21866,-0.39426 0.0916,-0.12048 0.25266,-0.17587 0.35779,-0.12314 0.10513,0.0528 0.45538,-0.0729 0.77844,-0.27926 0.32303,-0.20642 0.86414,-0.46073 1.20236,-0.56519 0.38822,-0.11984 0.61503,-0.33465 0.61503,-0.58224 0,-0.21582 0.13214,-0.43149 0.29373,-0.47934 0.88241,-0.26126 5.45001,-0.62427 8.2373,-0.65464 0.49216,-0.005 0.83765,-0.0848 0.76782,-0.17669 -0.14749,-0.19379 0.52207,-1.88587 0.80173,-2.02622 0.10373,-0.052 0.47168,0.0247 0.81775,0.17053 0.74194,0.31256 2.40372,0.19666 2.97708,-0.20764 0.25675,-0.181 0.84677,-0.25836 1.76547,-0.23144 1.30387,0.0382 1.95404,-0.12262 2.90052,-0.71747 0.19378,-0.12186 0.95883,-0.20773 1.7001,-0.19086 1.23575,0.0281 1.43088,0.0957 2.34958,0.81311 0.9975,0.77905 1.01135,0.78287 3.24963,0.89899 1.2363,0.0641 2.41413,0.16849 2.61747,0.23178 0.25683,0.08 0.41915,0.4902 0.53161,1.3432 0.16742,1.27008 0.39624,1.50354 0.82938,0.84631 0.1383,-0.20993 0.2044,-0.38165 0.14691,-0.38165 -0.0575,0 0.0407,-0.49377 0.21832,-1.09726 0.17758,-0.60345 0.33917,-1.99887 0.35901,-3.10083 0.0199,-1.10199 0.10346,-2.26126 0.18573,-2.57611 0.13428,-0.51404 0.25131,-0.57846 1.14697,-0.63113 0.93839,-0.0552 0.99747,-0.093 0.99747,-0.638 0,-0.41889 0.13007,-0.60706 0.46985,-0.6792 0.29514,-0.0627 0.46997,-0.26029 0.46997,-0.53122 0,-0.63004 0.54654,-0.89838 1.69141,-0.83054 l 1.01053,0.0599 0.0694,-1.28284 c 0.0582,-1.07532 0.14923,-1.31757 0.56308,-1.49744 0.64292,-0.27951 0.96799,0.13794 1.12964,1.45081 l 0.1175,0.95407 1.70968,0.12402 c 1.99256,0.14453 2.40198,0.35504 2.40198,1.23508 0,0.35452 0.10574,0.64456 0.23498,0.64456 0.12925,0 0.23499,-0.12884 0.23499,-0.28622 0,-0.21201 0.27405,-0.28626 1.05725,-0.28626 0.9006,0 1.05722,0.0566 1.05722,0.38166 0,0.6961 1.426,1.52658 2.62143,1.52658 0.46051,0 0.47354,-0.0934 0.39584,-2.83344 -0.0561,-1.98044 -0.17343,-2.92447 -0.38974,-3.1358 -0.25802,-0.25223 -0.24633,-0.38053 0.0706,-0.77344 0.5993,-0.74271 0.85043,-3.59421 0.80954,-9.19095 l -0.0376,-5.15222 0.9971,-1.71738 c 0.54841,-0.94458 1.41663,-2.43808 1.92942,-3.31891 0.70462,-1.21023 0.89773,-1.74224 0.7904,-2.17779 -0.0924,-0.37534 -0.0232,-0.68289 0.19834,-0.88174 0.26095,-0.23414 0.37683,-1.19544 0.49661,-4.11927 0.086,-2.09768 0.21307,-3.88995 0.28244,-3.98282 0.30554,-0.40957 0.74838,0.85413 0.7612,2.17252 0.008,0.78717 0.11893,1.77463 0.24716,2.19446 0.12827,0.4198 0.2713,1.4754 0.31775,2.3457 0.0464,0.87036 0.13873,1.62653 0.20505,1.68039 0.10892,0.0885 4.89993,0.47107 6.63382,0.52975 l 0.70483,0.0239 0.0619,-1.33579 c 0.0341,-0.73468 0.15811,-1.50747 0.27555,-1.71737 0.11749,-0.20993 0.27685,-1.2186 0.35394,-2.24155 0.13174,-1.74628 0.45392,-2.81525 0.84839,-2.81525 0.36487,0 0.44195,0.66004 0.33587,2.87656 -0.0658,1.37689 -0.005,2.6178 0.15097,3.09744 0.14338,0.44007 0.24738,1.0578 0.23102,1.37265 -0.0165,0.31485 -0.0374,0.83005 -0.0468,1.14496 -0.0104,0.35245 0.75607,1.8558 1.99417,3.91184 l 2.01089,3.33935 -0.18792,4.86597 c -0.11392,2.95059 -0.10068,5.20395 0.0337,5.72464 0.12179,0.47229 0.24148,3.8212 0.26602,7.44208 0.0606,8.96536 0.034,8.58697 0.60339,8.58697 0.50193,0 0.65592,-0.49033 0.19339,-0.61557 -0.15203,-0.0411 -0.19769,-0.17853 -0.10128,-0.30521 0.23806,-0.3128 0.61279,-0.0951 0.61279,0.35593 0,0.42465 1.20453,0.7786 1.36005,0.39966 0.0567,-0.13831 0.40533,-0.002 0.90158,0.3515 0.44503,0.31735 1.0169,0.57697 1.2709,0.57697 0.25394,0 0.46164,0.0782 0.46164,0.17392 0,0.25967 0.66281,0.13095 1.18094,-0.22928 0.25064,-0.17429 0.61743,-0.26642 0.81512,-0.20478 0.42728,0.13318 1.03458,-0.23663 1.29215,-0.78683 0.14505,-0.30985 0.41379,-0.40286 1.24881,-0.43241 0.62671,-0.0222 1.50092,-0.23568 2.12677,-0.5195 0.58444,-0.26498 1.3331,-0.48181 1.66354,-0.48181 0.51111,0 0.60099,0.0856 0.60099,0.57245 0,0.31488 0.10565,0.57248 0.23489,0.57248 0.12927,0 0.2366,-0.10736 0.23856,-0.23853 0.002,-0.16503 0.0568,-0.17385 0.17624,-0.0286 0.095,0.11551 0.40814,0.3107 0.69601,0.43381 0.44015,0.18817 0.50159,0.17782 0.38678,-0.0652 -0.18256,-0.38644 0.52435,-0.59229 0.9798,-0.28531 0.29355,0.19782 0.41378,0.17712 0.67828,-0.11658 0.17685,-0.19641 0.28433,-0.51397 0.23889,-0.70572 -0.0455,-0.19171 0.0708,-0.39639 0.25852,-0.45492 0.27194,-0.0847 0.345,-0.59595 0.36007,-2.51889 0.0104,-1.32691 0.14255,-2.79849 0.29374,-3.27027 0.264,-0.82418 0.31771,-0.8641 1.37387,-1.01998 1.04046,-0.15357 1.1054,-0.19947 1.21508,-0.85965 0.0637,-0.38361 0.13007,-1.12681 0.14753,-1.65155 0.0373,-1.12708 0.29467,-1.42371 0.94775,-1.0925 0.79047,0.401 2.25568,0.29046 2.88092,-0.21729 0.51727,-0.4201 0.63818,-0.43735 1.75964,-0.25073 0.66242,0.11017 1.15802,0.26126 1.10138,0.33566 -0.31311,0.41135 1.72541,0.48514 2.37519,0.086 0.52563,-0.32294 2.14752,-0.3674 3.51037,-0.0962 1.65778,0.3298 5.54798,0.43033 6.52448,0.16861 0.68011,-0.18231 0.95569,-0.18597 1.16559,-0.0155 0.33874,0.27511 2.38592,0.30563 2.1781,0.0324 -0.32654,-0.42902 2.75628,-0.0194 3.32409,0.44174 0.0885,0.0719 0.38654,0.13074 0.66217,0.13074 0.77649,0 1.06519,0.37585 1.06519,1.38678 0,0.84542 0.0426,0.91781 0.47516,0.8063 0.7392,-0.19052 1.85052,0.0857 2.14545,0.5332 0.16699,0.25342 0.25793,1.41062 0.24267,3.08673 -0.0145,1.57181 0.076,2.7992 0.21863,2.96616 0.18317,0.21457 0.27264,0.22598 0.36237,0.0463 0.14532,-0.29087 1.00799,-0.3075 1.48974,-0.0287 0.26563,0.15366 0.14972,0.17541 -0.46991,0.0882 -0.79297,-0.11166 -0.80408,-0.10537 -0.3081,0.1774 0.60553,0.34522 2.42266,0.53226 2.42266,0.24933 0,-0.1062 0.15699,-0.14416 0.34882,-0.0844 0.20599,0.0641 0.45142,-0.0469 0.59924,-0.27115 0.13764,-0.20898 0.34778,-0.33096 0.46686,-0.27121 0.2392,0.12012 1.40454,-0.43677 1.40454,-0.6712 0,-0.0812 -0.1322,-0.14371 -0.2937,-0.13886 -0.81769,0.0247 -1.35101,-0.0708 -1.35101,-0.24206 0,-0.10492 0.24792,-0.1908 0.55096,-0.1908 0.30304,0 0.74414,-0.1734 0.98029,-0.38525 0.39752,-0.35672 0.50104,-0.78778 0.65491,-2.7255 0.0317,-0.39895 0.19195,-0.79287 0.35607,-0.87527 0.35749,-0.17941 0.59162,-2.08695 0.39356,-3.20758 -0.1109,-0.62818 -0.22174,-0.77606 -0.51337,-0.68518 -0.3999,0.12463 -0.39868,0.12036 0.26215,-0.93244 0.41534,-0.66195 0.41821,-0.7387 0.0504,-1.36825 -0.21429,-0.36679 -0.45483,-0.93137 -0.5343,-1.25461 -0.13739,-0.55777 0.009,-0.69186 0.66754,-0.61301 0.0914,0.0109 0.22876,-0.25796 0.30524,-0.59756 0.18103,-0.80271 0.24262,-9.6955 0.0936,-13.49793 -0.0637,-1.62674 -0.0284,-4.00467 0.0786,-5.28424 0.23688,-2.8338 -0.0682,-6.88931 -0.53595,-7.12402 -0.2699,-0.1355 -0.2666,-0.24365 0.0206,-0.67957 0.18781,-0.28509 0.30963,-0.67169 0.27063,-0.85907 -0.12018,-0.57653 0.79395,-0.82095 3.40839,-0.91122 0.66571,-0.023 0.77081,-0.10336 0.90728,-0.69385 0.16468,-0.71329 0.26038,-0.74734 1.90632,-0.67749 0.95263,0.0404 0.98956,0.0198 1.23217,-0.68994 0.13764,-0.40237 0.25074,-0.91858 0.25147,-1.14716 0.002,-0.4729 1.02154,-1.20642 1.67773,-1.20642 0.35303,0 0.43817,-0.14529 0.43817,-0.74771 0,-1.03451 0.19507,-1.35135 0.83216,-1.35135 0.3009,0 0.81817,-0.0837 1.14965,-0.18609 0.57032,-0.17615 0.60279,-0.26065 0.60523,-1.57425 0.001,-0.76355 0.0689,-1.71375 0.14978,-2.11163 0.14069,-0.69101 0.15918,-0.7038 0.41553,-0.2862 0.20086,0.32715 0.4693,0.43714 1.06683,0.43714 0.68634,0 0.82471,-0.0794 0.9845,-0.56479 0.12573,-0.3819 0.0932,-0.61267 -0.10053,-0.71262 -0.44104,-0.22763 -1.68658,-0.18076 -2.00177,0.0752 -0.2193,0.17813 -0.28192,0.0231 -0.28192,-0.69745 0,-0.88547 0.019,-0.91245 0.42969,-0.61063 0.28326,0.20816 0.84381,0.3158 1.64471,0.3158 1.12995,0 1.21735,-0.0334 1.25012,-0.47705 0.0195,-0.26239 0.0458,-0.58438 0.0588,-0.71558 0.0168,-0.17133 -0.47302,-0.23852 -1.73865,-0.23852 l -1.76214,0 -0.0735,-0.62018 c -0.0704,-0.5922 0.23566,-0.8339 0.54352,-0.42935 0.21039,0.27652 1.92694,0.23654 2.04993,-0.0477 0.0569,-0.1312 0.0364,-0.45322 -0.0452,-0.71561 -0.1322,-0.42532 -0.27423,-0.47873 -1.31146,-0.49277 l -1.16327,-0.0157 -0.072,-1.12122 c -0.12604,-1.96588 -0.0951,-1.99587 2.06525,-1.99587 1.64483,0 1.89776,0.0468 2.12603,0.39321 0.35468,0.53833 1.21729,0.41608 1.4278,-0.20236 0.0893,-0.26239 0.17456,-1.59339 0.18939,-2.95778 0.0271,-2.48537 0.22284,-3.2509 0.72638,-2.84185 0.15808,0.12833 0.27441,1.31914 0.30359,3.1064 0.0504,3.09569 0.11346,3.25631 1.2807,3.26275 0.36078,0.002 0.52863,0.11764 0.52863,0.36416 0,0.37814 -0.43256,0.59287 -1.19397,0.59287 -0.45618,0 -0.54523,0.16809 -0.45478,0.8587 0.0772,0.5896 0.49201,0.88336 1.15869,0.82059 0.47156,-0.0445 0.60761,0.0268 0.60761,0.31833 0,0.28952 -0.22894,0.41235 -0.99866,0.53595 -0.82593,0.13269 -0.99853,0.23581 -0.99853,0.59662 0,0.66003 0.77551,1.15277 1.39239,0.88458 0.42883,-0.18631 0.52234,-0.14816 0.73102,0.29758 0.13159,0.28121 0.50067,0.76355 0.82019,1.07183 0.75384,0.72763 0.73456,1.06406 -0.0654,1.13883 -0.83026,0.0776 -1.00067,0.78393 -0.32996,1.36709 0.31397,0.27295 0.5279,0.81284 0.63813,1.61014 0.11261,0.81595 0.28906,1.25327 0.55176,1.36743 0.2124,0.0923 1.22607,0.2627 2.25256,0.3787 1.02655,0.11596 1.97522,0.29943 2.10827,0.40774 0.13569,0.11054 0.2193,0.88397 0.19037,1.7612 -0.0744,2.26105 -0.0284,2.35553 1.21857,2.50742 1.14453,0.13937 1.30072,0.25534 1.52063,1.12863 0.14465,0.57477 0.15656,0.57877 1.78339,0.60098 0.90075,0.0124 1.81756,0.0891 2.03759,0.17057 0.21998,0.0815 0.53077,0.0825 0.69062,0.002 0.4519,-0.2268 5.67468,-0.26977 6.00165,-0.0494 0.15747,0.10617 0.49578,0.13906 0.75164,0.0731 0.65253,-0.16825 8.50586,-0.23005 8.62915,-0.068 0.0557,0.0731 0.33692,0.0833 0.62482,0.0225 0.28821,-0.0608 0.85132,-0.12826 1.25171,-0.14996 0.40033,-0.0217 0.85071,-0.10104 1.00067,-0.17633 0.14996,-0.0753 0.45685,-0.0923 0.6817,-0.0379 0.80664,0.19516 3.74195,0.1672 6.12665,-0.0583 2.10968,-0.19949 2.50037,-0.19119 2.97815,0.0631 0.30249,0.16098 0.58423,0.216 0.62616,0.12231 0.0421,-0.0937 1.29217,-0.23019 2.77826,-0.30337 1.48608,-0.0732 2.76526,-0.16306 2.84253,-0.19983 0.0774,-0.0367 1.26129,-0.1529 2.63086,-0.2583 1.68756,-0.12986 2.77704,-0.3165 3.38012,-0.57901 0.48963,-0.21311 1.042,-0.38749 1.22754,-0.38749 0.18561,0 0.52411,-0.1372 0.75226,-0.30496 0.22815,-0.16766 0.52741,-0.2485 0.66461,-0.17953 0.17584,0.0882 0.24982,28.89361 0.24982,97.3378 l 0,97.21246 -304.5,0 -304.5,0 0,-76.67856 z M 383.23715,197.04956 c 0.0345,-0.96948 0.14194,-1.8497 0.23896,-1.95593 0.0968,-0.1062 0.19195,-0.59238 0.21112,-1.08042 0.0315,-0.79571 -0.0128,-0.87707 -0.42872,-0.78869 -0.25515,0.0542 -0.47009,0.23874 -0.47778,0.41019 -0.18603,4.15216 -0.16568,5.17761 0.1026,5.17761 0.20615,0 0.30951,-0.51502 0.35382,-1.76276 z m 112.10037,-2.81698 c 0,-0.10492 -0.15863,-0.19077 -0.35247,-0.19077 -0.19379,0 -0.35242,0.0858 -0.35242,0.19077 0,0.10498 0.15863,0.19085 0.35242,0.19085 0.19384,0 0.35247,-0.0859 0.35247,-0.19085 z m 7.31665,-0.3816 c 0.66639,0 1.03238,-0.25299 0.80271,-0.55481 -0.0748,-0.0981 -0.63797,-0.0417 -1.29944,0.1301 -0.93915,0.2439 -1.11572,0.35406 -0.90237,0.56287 0.18399,0.18014 0.34033,0.19873 0.51025,0.0607 0.13467,-0.10938 0.53464,-0.19889 0.88885,-0.19889 z M 57.853698,191.27487 c 0,-0.15744 -0.171501,-0.28622 -0.381149,-0.28622 -0.312218,0 -0.328281,0.0518 -0.08876,0.28622 0.368309,0.36038 0.469906,0.36038 0.469906,0 z m -32.834745,-0.55658 c 0.0323,-0.0962 -0.07343,-0.21066 -0.234953,-0.25442 -0.16152,-0.0437 -0.293701,0.0636 -0.293701,0.23852 0,0.32312 0.421209,0.33582 0.528654,0.0159 z m 31.425028,-0.49292 c 0,-0.10501 -0.105732,-0.19082 -0.234955,-0.19082 -0.129189,0 -0.234955,0.0858 -0.234955,0.19082 0,0.10495 0.105766,0.1908 0.234955,0.1908 0.129223,0 0.234955,-0.0858 0.234955,-0.1908 z m -2.466995,-2.38528 c 0,-0.10495 -0.396473,-0.21747 -0.8811,-0.25006 -0.826252,-0.0555 -1.09935,0.10455 -0.713261,0.41812 0.244667,0.1987 1.59436,0.0565 1.59436,-0.16806 z m 3.784225,-0.44354 c 0.02473,-0.39951 -0.07169,-0.60599 -0.282948,-0.60599 -0.36636,0 -0.689434,0.82617 -0.447456,1.14416 0.288593,0.37925 0.69199,0.082 0.730404,-0.53817 z m -2.259499,0.25515 c 0.159504,-0.15609 0.223091,-0.42541 0.141354,-0.59845 -0.136143,-0.28811 -0.187866,-0.28585 -0.613678,0.0271 -0.25576,0.18802 -0.465034,0.45731 -0.465034,0.59848 0,0.34329 0.575836,0.32666 0.937359,-0.0271 z m 3.526787,-0.29995 c 0,-0.0988 -0.158596,-0.17954 -0.352448,-0.17954 -0.363335,0 -0.466747,0.22516 -0.202187,0.44006 0.187702,0.15244 0.554634,-0.0199 0.554634,-0.26052 z m -5.467007,-1.3245 c 0.07894,0 0.337322,0.14246 0.574158,0.31653 0.603699,0.44373 1.60347,0.0775 1.60347,-0.5874 0,-0.60773 -0.327747,-0.76016 -0.993652,-0.46213 -0.293465,0.13132 -0.71854,0.21576 -0.944687,0.18765 -0.226151,-0.0281 -0.41116,0.0342 -0.41116,0.13849 0,0.10422 -0.22578,0.21695 -0.50177,0.25046 -0.275921,0.0336 -0.658714,0.254 -0.850582,0.48993 -0.331844,0.40787 -0.310135,0.44217 0.442986,0.70071 l 0.79187,0.27189 0.07293,-0.65308 c 0.0401,-0.35919 0.137493,-0.65305 0.216438,-0.65305 z m 34.366295,0.9654 c 0,-0.0988 -0.105736,-0.23267 -0.234924,-0.29752 -0.12925,-0.0649 -0.234985,0.016 -0.234985,0.17957 0,0.16363 0.105736,0.29751 0.234985,0.29751 0.129189,0 0.234924,-0.0808 0.234924,-0.17956 z m 0,-1.34705 c 0,-0.2099 -0.105736,-0.38162 -0.234924,-0.38162 -0.12925,0 -0.234985,0.17172 -0.234985,0.38162 0,0.20993 0.105736,0.38165 0.234985,0.38165 0.129189,0 0.234924,-0.17172 0.234924,-0.38165 z m -30.485249,-0.098 c -0.08654,-0.27731 -0.590256,-0.22882 -0.712322,0.0685 -0.06863,0.16721 0.04745,0.23285 0.332855,0.18823 0.241001,-0.0377 0.411797,-0.1532 0.379467,-0.25677 z m 30.584461,-1.72354 c 0.166084,-0.53754 -0.0117,-0.91635 -0.350403,-0.74637 -0.279549,0.14032 -0.28775,1.23224 -0.0092,1.23224 0.115211,0 0.277,-0.21866 0.359612,-0.48587 z m 499.177341,-7.71952 c 0,-0.10495 -0.1585,-0.19079 -0.35235,-0.19079 -0.19385,0 -0.35248,0.0858 -0.35248,0.19079 0,0.10495 0.15863,0.19086 0.35248,0.19086 0.19385,0 0.35235,-0.0859 0.35235,-0.19086 z m -2.07531,-0.74331 c 0.043,-0.094 1.24133,-0.22025 2.66284,-0.28061 1.42145,-0.0604 3.32452,-0.24295 4.22906,-0.4057 0.90454,-0.16278 2.80768,-0.32904 4.22919,-0.36951 1.42151,-0.0405 2.74866,-0.1272 2.9494,-0.19269 0.20063,-0.0656 0.54999,-0.37378 0.77643,-0.68496 0.36902,-0.50757 0.42102,-1.35532 0.50433,-8.22992 0.0729,-6.01578 0.15863,-7.69791 0.39838,-7.82148 0.31927,-0.16442 1.00922,-0.20019 4.57281,-0.23657 1.18384,-0.0121 2.23688,-0.09 2.33979,-0.17318 0.10296,-0.0831 0.16247,-0.90101 0.13226,-1.81751 -0.0371,-1.12466 0.0425,-1.76495 0.24469,-1.96957 0.2041,-0.20664 1.03894,-0.37369 2.62183,-0.52454 1.27716,-0.12177 2.40381,-0.26236 2.50354,-0.31247 0.35321,-0.17721 -0.0576,-0.81061 -0.67536,-1.04126 -0.36346,-0.13571 -1.53839,-0.22705 -2.79956,-0.21774 -1.77154,0.0131 -2.17328,-0.0361 -2.17328,-0.26648 0,-0.37094 -0.15161,-0.35672 -0.9165,0.0856 -0.41284,0.23871 -0.75208,0.31024 -0.96497,0.20343 -0.18054,-0.0906 -0.42187,-0.11771 -0.53656,-0.0602 -0.18438,0.0926 -1.24963,0.0944 -6.27527,0.0106 -0.71069,-0.0118 -1.66235,-0.009 -2.11456,0.007 -0.45227,0.0157 -1.35095,0.0286 -1.99713,0.0289 -0.64612,2.4e-4 -1.862,0.0153 -2.70197,0.0335 -0.8399,0.0182 -2.00299,0.0199 -2.58447,0.004 -1.45422,-0.0398 -5.034,0.1084 -6.48767,0.26859 l -1.20129,0.13229 -0.14972,1.43888 c -0.19196,1.84408 -0.19672,20.98834 -0.005,21.7651 0.12469,0.50598 0.26122,0.59616 0.99871,0.65964 1.67664,0.14441 2.34333,0.13525 2.42054,-0.0331 z m -18.64081,-35.58374 c 0.0998,-0.70975 -0.23132,-0.98285 -0.86023,-0.70948 -0.41303,0.17954 -0.54584,0.7613 -0.30109,1.31846 0.0148,0.0335 0.26471,0.0335 0.55548,0 0.38495,-0.0444 0.54963,-0.20993 0.60584,-0.60898 z m 0.98004,-2.20771 c 0,-0.30862 -0.10565,-0.61425 -0.23492,-0.67913 -0.13983,-0.0702 -0.23499,0.15707 -0.23499,0.56125 0,0.3735 0.10578,0.67913 0.23499,0.67913 0.12927,0 0.23492,-0.25256 0.23492,-0.56125 z m 1.68494,-0.51785 c 0.58587,-0.43066 0.54046,-0.9519 -0.0949,-1.08685 -0.69348,-0.14728 -0.85932,0.034 -0.71582,0.78247 0.13604,0.70944 0.21783,0.74014 0.81073,0.30438 z m 2.77923,-0.75415 c 0,-0.14618 -0.21148,-0.26578 -0.46997,-0.26578 -0.44226,0 -0.63885,0.37162 -0.32947,0.6229 0.2287,0.18573 0.79944,-0.0692 0.79944,-0.35712 z m -2.39654,-1.8305 c 0.15503,-0.12598 0.28192,-0.42655 0.28192,-0.66791 0,-0.43445 -0.0472,-0.45148 -1.45587,-0.52497 -0.2193,-0.0114 -0.47479,-0.0827 -0.56787,-0.1582 -0.29663,-0.2409 -0.79572,-0.14761 -0.79572,0.14887 0,0.16049 0.20978,0.28622 0.47724,0.28622 0.43182,0 0.54138,0.11957 0.8302,0.9064 0.11139,0.30338 0.86114,0.30924 1.2301,0.01 z m -0.23969,-2.29941 c 0.23481,-0.23264 0.36829,-0.75998 0.31379,-1.24036 -0.0151,-0.13296 -0.33918,-0.23855 -0.73194,-0.23855 -0.66064,0 -0.70495,0.0459 -0.70495,0.73147 0,0.40232 0.0706,0.78873 0.15673,0.85871 0.24768,0.20123 0.70404,0.14868 0.96637,-0.11127 z m -1.59295,-1.40045 c 0,-1.03116 -0.39484,-1.18036 -2.40827,-0.91007 -0.73315,0.0984 -0.88104,0.19522 -0.88104,0.57651 0,0.56528 0.64545,0.79593 2.17322,0.77655 0.9953,-0.0125 1.11609,-0.0605 1.11609,-0.44299 z m -438.42362,-4.94442 c 0,-0.14503 -0.10573,-0.31677 -0.23492,-0.38165 -0.13376,-0.0671 -0.23499,0.0972 -0.23499,0.38165 0,0.28447 0.10123,0.4488 0.23499,0.38163 0.12919,-0.0649 0.23492,-0.23659 0.23492,-0.38163 z m 2.34954,-0.69038 c 0,-0.10495 -0.10573,-0.13777 -0.23493,-0.0729 -0.12926,0.0648 -0.23498,0.20378 -0.23498,0.30873 0,0.10498 0.10572,0.13777 0.23498,0.0729 0.1292,-0.0648 0.23493,-0.20378 0.23493,-0.30873 z m 0.77769,-2.92297 c 0.26872,-0.16549 0.33359,-0.30785 0.17624,-0.38684 -0.37851,-0.18998 -0.29778,-0.69933 0.15324,-0.96717 0.34294,-0.20369 0.3553,-0.28492 0.0838,-0.5506 -0.29387,-0.28756 -0.35396,-0.28569 -0.776,0.0245 -0.43704,0.32121 -0.47119,0.32097 -0.76607,-0.007 -0.20883,-0.23197 -0.36134,-0.2735 -0.47172,-0.12853 -0.0897,0.11783 0.0246,0.3826 0.25387,0.58835 0.31955,0.28685 0.35236,0.42653 0.14049,0.59862 -0.36586,0.29712 -0.34892,0.44366 0.0928,0.8024 0.44484,0.36126 0.56415,0.36404 1.11331,0.0259 z m 1.57184,-0.2031 c 0,-0.15738 -0.15857,-0.28622 -0.35242,-0.28622 -0.19385,0 -0.35242,0.12884 -0.35242,0.28622 0,0.15744 0.15857,0.28629 0.35242,0.28629 0.19385,0 0.35242,-0.12885 0.35242,-0.28629 z m 2.46702,-1.43115 c -0.18853,-0.24776 -0.82232,-0.24776 -0.82232,0 0,0.10495 0.21771,0.19081 0.48376,0.19081 0.2661,0 0.41849,-0.0859 0.33856,-0.19081 z m -3.27549,-0.97229 c 0.27853,-0.36598 -0.40155,-1.12675 -1.00724,-1.12675 -0.31451,0 -0.49766,0.084 -0.41633,0.19082 0.0799,0.10498 0.0332,0.19083 -0.10364,0.19083 -0.3943,0 -0.17732,0.45437 0.33855,0.70883 0.59211,0.29201 0.98492,0.30397 1.18866,0.0363 z m -0.20824,-1.55182 c 1.09293,0.10005 1.48372,-0.0906 1.47592,-0.71985 -0.003,-0.22406 -0.0556,-0.2137 -0.24304,0.0477 -0.30315,0.4227 -0.82515,0.43049 -1.02135,0.0153 -0.18747,-0.39691 0.28519,-0.65292 0.95386,-0.51665 0.27774,0.0566 0.56865,0.0193 0.64641,-0.083 0.0778,-0.10225 -0.14855,-0.2447 -0.50298,-0.31654 -0.35449,-0.0719 -0.83038,-0.2667 -1.05763,-0.43299 -0.38562,-0.28224 -0.3871,-0.32562 -0.0222,-0.653 0.30898,-0.27736 0.32169,-0.35012 0.0606,-0.34808 -0.73603,0.006 -1.37564,0.24051 -1.2222,0.44846 0.0879,0.11926 -0.0215,0.0973 -0.24326,-0.0489 -0.55902,-0.36839 -0.66958,-0.2095 -0.78674,1.13101 -0.10278,1.17569 0.22636,1.92402 0.68317,1.55301 0.11784,-0.0957 0.69354,-0.13006 1.27946,-0.0764 z m 2.07402,-2.6281 c -0.18607,-0.24452 -0.35242,-0.24452 -0.35242,0 0,0.10497 0.11199,0.19085 0.24883,0.19085 0.13685,0 0.18344,-0.0859 0.10359,-0.19085 z m 1.1844,-0.96679 c 0.21623,-0.28418 -0.0344,-0.43866 -0.48428,-0.29848 -0.20764,0.0647 -0.31169,0.20413 -0.23123,0.30984 0.19043,0.25026 0.52046,0.24503 0.71551,-0.0114 z m -4.41224,-1.32494 c -0.16509,-0.21463 -0.33373,-0.28896 -0.38308,-0.16875 -0.0485,0.11812 0.0569,0.28939 0.23418,0.38057 0.46272,0.23807 0.47804,0.21623 0.1489,-0.21182 z m 1.23071,-0.67699 c 0,-0.41035 -0.47434,-0.52862 -1.07425,-0.26785 -0.50491,0.21945 -0.52179,0.26566 -0.17241,0.47316 0.46541,0.27634 1.24666,0.14768 1.24666,-0.20531 z m 1.40973,0.1064 c 0.28499,-0.14959 0.25125,-0.18553 -0.17618,-0.18789 -0.29077,-0.002 -0.52866,0.0829 -0.52866,0.18789 0,0.23908 0.24932,0.23908 0.70484,0 z m 362.76846,80.42298 c 0,-0.29273 0.0794,-0.4545 0.1763,-0.3595 0.0969,0.0949 0.26047,0.22418 0.36353,0.28714 0.10302,0.063 0.0237,0.22473 -0.17618,0.35953 -0.31336,0.21118 -0.36365,0.17154 -0.36365,-0.28717 z m 50.0452,-3.53305 c 0,-0.11118 -0.10565,-0.14896 -0.23499,-0.0841 -0.12915,0.0649 -0.23492,0.0362 -0.23492,-0.0637 0,-0.0999 0.15857,-0.23111 0.35241,-0.29153 0.23981,-0.0747 0.35248,0.0103 0.35248,0.26583 0,0.20661 -0.0529,0.37568 -0.11755,0.37568 -0.0646,0 -0.11743,-0.091 -0.11743,-0.20212 z m -310.13918,-0.60886 c -2.1e-4,-0.0262 -0.15722,-0.77176 -0.34898,-1.65662 -0.35121,-1.62109 -0.34032,-1.86325 0.0749,-1.65484 0.29824,0.14972 1.05282,2.91717 0.86333,3.16623 -0.12677,0.16662 -0.58841,0.28033 -0.58928,0.14523 z m 306.97975,-1.84424 c -0.0757,-0.0994 -0.0374,-0.23099 0.0849,-0.29248 0.1225,-0.0614 0.28455,-0.0304 0.36017,0.0691 0.0757,0.0994 0.0374,0.23102 -0.0851,0.29242 -0.12238,0.0615 -0.28436,0.0304 -0.35999,-0.069 z m 0.0105,-1.11075 c -0.25616,-0.20806 -0.14593,-0.41629 0.32947,-0.62295 0.39441,-0.17145 0.46991,-0.14511 0.46991,0.16373 0,0.36773 -0.53412,0.67462 -0.79938,0.45923 z M 41.876842,184.01239 c 0,-0.16363 0.105762,-0.24444 0.234985,-0.17956 0.303986,0.15262 0.303986,0.47708 0,0.47708 -0.129223,0 -0.234985,-0.13391 -0.234985,-0.29752 z m 5.169006,-0.26373 c 0,-0.0988 0.105728,-0.23261 0.234951,-0.29746 0.129257,-0.0649 0.234955,0.0159 0.234955,0.17954 0,0.16357 -0.105698,0.29752 -0.234955,0.29752 -0.129223,0 -0.234951,-0.0808 -0.234951,-0.1796 z m -1.167305,-1.00635 c 0.0073,-0.23941 0.697399,-1.10013 0.697399,-0.86978 0,0.0639 0.06107,0.24551 0.135708,0.40347 0.08214,0.17377 -0.05703,0.37101 -0.352413,0.49939 -0.376778,0.16376 -0.486443,0.15622 -0.480694,-0.0331 z m -2.349533,-1.16818 c -0.0046,-0.21726 0.260593,-0.43277 0.697399,-0.56662 0.387669,-0.11884 0.704857,-0.28314 0.704857,-0.36508 0,-0.082 0.158596,-0.14902 0.352413,-0.14902 0.549324,0 0.413952,0.5119 -0.17617,0.66629 -0.290775,0.0761 -0.619865,0.12579 -0.731277,0.11054 -0.111443,-0.0153 -0.345959,0.12567 -0.521225,0.31323 -0.30489,0.32657 -0.31884,0.32614 -0.325996,-0.009 z m 8.45089,-1.23599 c 0,-0.10001 0.268494,-0.22354 0.596676,-0.27451 0.376579,-0.0584 0.564816,-0.0139 0.510235,0.12088 -0.107277,0.26486 -1.106911,0.4036 -1.106911,0.15363 z m -8.223396,-0.50135 c 0,-0.15121 0.09464,-0.32244 0.210316,-0.38052 0.241879,-0.12143 0.533493,0.36945 0.321732,0.54144 -0.252129,0.20481 -0.532047,0.12012 -0.532047,-0.16092 z m 2.114578,-0.0252 c 0,-0.17771 0.159874,-0.27509 0.391666,-0.23853 0.589485,0.0928 0.67041,0.53876 0.0978,0.53876 -0.288593,0 -0.489468,-0.1232 -0.489468,-0.30023 z m 12.433468,-1.46485 c -0.01049,-0.0263 -0.04043,-0.28384 -0.06651,-0.57248 -0.0609,-0.67401 0.606758,-0.71771 0.973621,-0.0637 0.208336,0.37131 0.189079,0.48273 -0.09894,0.57245 -0.369789,0.11527 -0.774799,0.14722 -0.80817,0.0638 z M 316.362,172.76517 c -0.003,-0.41983 0.0434,-0.61404 0.10223,-0.43161 0.0588,0.18243 0.061,0.52594 0.005,0.76327 -0.0562,0.23743 -0.10424,0.0881 -0.10693,-0.33166 z m -90.42795,-1.23291 c 0.0858,-0.83551 0.21597,-3.56189 0.28937,-6.05859 0.14613,-4.9744 0.55655,-6.58338 0.59688,-2.33973 0.0301,3.17939 0.0232,4.01645 -0.0481,5.76703 -0.031,0.76093 0.0204,1.88178 0.1144,2.49082 0.17894,1.1604 -0.047,1.6596 -0.75107,1.6596 -0.30307,0 -0.33373,-0.23105 -0.20145,-1.51913 z M 62.336364,160.95008 c -0.01018,-0.20112 0.04537,-0.31382 0.12344,-0.25043 0.07807,0.0634 0.08641,0.22799 0.01852,0.36572 -0.07498,0.15222 -0.130669,0.10703 -0.14196,-0.11529 z M 193.65697,150.14151 c 0,-0.3406 0.0979,-0.53463 0.23492,-0.46579 0.30589,0.15357 0.30589,1.04953 0,1.04953 -0.1292,0 -0.23492,-0.26272 -0.23492,-0.58374 z m -65.55214,-29.21628 c 0,-0.54225 0.0388,-0.95011 0.0862,-0.90643 0.20004,0.18447 0.30826,1.89232 0.1199,1.89232 -0.11338,0 -0.20614,-0.44362 -0.20614,-0.98589 z m -0.0636,-1.41926 c -0.0942,-0.0765 -0.15896,-0.61856 -0.14384,-1.20456 l 0.0274,-1.06538 0.21206,1.03842 c 0.22187,1.08684 0.19252,1.46557 -0.0957,1.23152 z m 11.6135,-0.64798 c 0,-0.26238 0.0533,-0.36972 0.11844,-0.23853 0.0652,0.1312 0.0652,0.34587 0,0.47702 -0.0651,0.13121 -0.11844,0.0239 -0.11844,-0.23849 z m -0.0371,-1.03827 c 0,-0.33516 0.14095,-0.38452 0.3424,-0.11984 0.0743,0.0977 0.0277,0.23158 -0.10364,0.29748 -0.13135,0.066 -0.23876,-0.014 -0.23876,-0.17764 z m -12.01303,-2.53964 c -0.0167,-0.39357 -0.0602,-1.08055 -0.0967,-1.5266 -0.0364,-0.44604 0.0301,-0.81097 0.14788,-0.81097 0.11776,0 0.21556,0.49374 0.21731,1.09721 0.002,0.60349 0.0669,1.29045 0.14485,1.52658 0.085,0.2576 0.0368,0.42935 -0.12065,0.42935 -0.14432,0 -0.27599,-0.322 -0.29273,-0.71557 z m 0.97376,-3.80521 c 0.003,-0.66283 0.0668,-0.83816 0.23135,-0.63142 0.29878,0.37549 0.29878,1.2812 0,1.43118 -0.14438,0.0724 -0.23358,-0.2359 -0.23135,-0.79976 z m 10.11795,0.24318 c -0.0102,-0.20114 0.0454,-0.31387 0.12347,-0.25044 0.078,0.0634 0.0864,0.22796 0.0185,0.36575 -0.075,0.15219 -0.13066,0.10701 -0.14195,-0.11531 z M 389.13843,50.066729 c 0,-0.532715 0.56918,-0.657837 0.79724,-0.175217 0.23828,0.504333 0.16403,0.652283 -0.32733,0.652283 -0.34461,0 -0.46991,-0.127213 -0.46991,-0.477066 z"
       id="path2177"
       inkscape:connector-curvature="0"
       style="fill:#888a85;fill-opacity:1" />
  </g>
</svg>
