<?xml version="1.0" encoding="UTF-8" standalone="no"?>
<svg
   xmlns:dc="http://purl.org/dc/elements/1.1/"
   xmlns:cc="http://creativecommons.org/ns#"
   xmlns:rdf="http://www.w3.org/1999/02/22-rdf-syntax-ns#"
   xmlns:svg="http://www.w3.org/2000/svg"
   xmlns="http://www.w3.org/2000/svg"
   xmlns:xlink="http://www.w3.org/1999/xlink"
   xmlns:sodipodi="http://sodipodi.sourceforge.net/DTD/sodipodi-0.dtd"
   xmlns:inkscape="http://www.inkscape.org/namespaces/inkscape"
   width="640"
   height="480"
   id="svg3037"
   version="1.1"
   inkscape:version="0.48.4 r9939"
   sodipodi:docname="blue-skyline.svg">
  <defs
     id="defs3049">
    <inkscape:perspective
       sodipodi:type="inkscape:persp3d"
       inkscape:vp_x="0 : 0.5 : 1"
       inkscape:vp_y="0 : 1000 : 0"
       inkscape:vp_z="1 : 0.5 : 1"
       inkscape:persp3d-origin="0.5 : 0.33333333 : 1"
       id="perspective2993" />
    <inkscape:perspective
       id="perspective2983"
       inkscape:persp3d-origin="960 : 360 : 1"
       inkscape:vp_z="1920 : 540 : 1"
       inkscape:vp_y="0 : 1000 : 0"
       inkscape:vp_x="0 : 540 : 1"
       sodipodi:type="inkscape:persp3d" />
    <linearGradient
       y2="-436.83109"
       x2="288.89954"
       y1="-441.23294"
       x1="284.80219"
       gradientUnits="userSpaceOnUse"
       id="linearGradient3711"
       xlink:href="#linearGradient6538"
       inkscape:collect="always" />
    <linearGradient
       y2="-436.70703"
       x2="289.76562"
       y1="-439.48358"
       x1="286.66589"
       gradientUnits="userSpaceOnUse"
       id="linearGradient3709"
       xlink:href="#linearGradient6549"
       inkscape:collect="always" />
    <linearGradient
       y2="-431.91833"
       x2="279.97546"
       y1="-437.10501"
       x1="275.94193"
       gradientUnits="userSpaceOnUse"
       id="linearGradient3707"
       xlink:href="#linearGradient6527"
       inkscape:collect="always" />
    <linearGradient
       y2="-436.4429"
       x2="289.39124"
       y1="-439.939"
       x1="285.94086"
       gradientUnits="userSpaceOnUse"
       id="linearGradient3705"
       xlink:href="#linearGradient6538"
       inkscape:collect="always" />
    <linearGradient
       y2="-436.14453"
       x2="289.85379"
       y1="-441.29074"
       x1="286.51172"
       gradientUnits="userSpaceOnUse"
       id="linearGradient3703"
       xlink:href="#linearGradient6513"
       inkscape:collect="always" />
    <linearGradient
       y2="-436.32199"
       x2="289.67633"
       y1="-439.75281"
       x1="287.5173"
       gradientUnits="userSpaceOnUse"
       id="linearGradient3701"
       xlink:href="#linearGradient6497"
       inkscape:collect="always" />
    <linearGradient
       y2="-431.96991"
       x2="285.02859"
       y1="-441.05182"
       x1="271.0217"
       gradientUnits="userSpaceOnUse"
       id="linearGradient3699"
       xlink:href="#linearGradient6470"
       inkscape:collect="always" />
    <radialGradient
       gradientTransform="matrix(1.382603,3.581398e-5,0,0.171503,-6.729684,34.0972)"
       gradientUnits="userSpaceOnUse"
       xlink:href="#linearGradient3907"
       id="radialGradient7284"
       fy="47.045319"
       fx="20.913568"
       r="19.5"
       cy="47.045319"
       cx="20.913568" />
    <radialGradient
       gradientTransform="matrix(1.382603,3.581398e-5,0,0.171503,-6.729684,34.0972)"
       gradientUnits="userSpaceOnUse"
       xlink:href="#linearGradient3907"
       id="radialGradient7282"
       fy="47.045319"
       fx="20.913568"
       r="19.5"
       cy="47.045319"
       cx="20.913568" />
    <radialGradient
       gradientTransform="matrix(1.382603,3.581398e-5,0,0.171503,-6.729684,34.0972)"
       gradientUnits="userSpaceOnUse"
       xlink:href="#linearGradient3907"
       id="radialGradient7280"
       fy="47.045319"
       fx="20.913568"
       r="19.5"
       cy="47.045319"
       cx="20.913568" />
    <radialGradient
       gradientTransform="matrix(1.382603,3.581398e-5,0,0.171503,-6.729684,34.0972)"
       gradientUnits="userSpaceOnUse"
       xlink:href="#linearGradient3907"
       id="radialGradient7278"
       fy="47.045319"
       fx="20.913568"
       r="19.5"
       cy="47.045319"
       cx="20.913568" />
    <radialGradient
       gradientTransform="matrix(1.382603,3.581398e-5,0,0.171503,-6.729684,34.0972)"
       gradientUnits="userSpaceOnUse"
       xlink:href="#linearGradient3907"
       id="radialGradient7276"
       fy="47.045319"
       fx="20.913568"
       r="19.5"
       cy="47.045319"
       cx="20.913568" />
    <radialGradient
       gradientTransform="matrix(1.382603,3.581398e-5,0,0.171503,-6.729684,34.0972)"
       gradientUnits="userSpaceOnUse"
       xlink:href="#linearGradient3907"
       id="radialGradient7274"
       fy="47.045319"
       fx="20.913568"
       r="19.5"
       cy="47.045319"
       cx="20.913568" />
    <radialGradient
       gradientTransform="matrix(1.382603,3.581398e-5,0,0.171503,-6.729684,34.0972)"
       gradientUnits="userSpaceOnUse"
       xlink:href="#linearGradient3907"
       id="radialGradient7272"
       fy="47.045319"
       fx="20.913568"
       r="19.5"
       cy="47.045319"
       cx="20.913568" />
    <radialGradient
       gradientTransform="matrix(1.382603,3.581398e-5,0,0.171503,-6.729684,34.0972)"
       gradientUnits="userSpaceOnUse"
       xlink:href="#linearGradient3907"
       id="radialGradient7270"
       fy="47.045319"
       fx="20.913568"
       r="19.5"
       cy="47.045319"
       cx="20.913568" />
    <radialGradient
       gradientTransform="matrix(1.382603,3.581398e-5,0,0.171503,-6.729684,34.0972)"
       gradientUnits="userSpaceOnUse"
       xlink:href="#linearGradient3907"
       id="radialGradient7268"
       fy="47.045319"
       fx="20.913568"
       r="19.5"
       cy="47.045319"
       cx="20.913568" />
    <radialGradient
       gradientTransform="matrix(1.382603,3.581398e-5,0,0.171503,-6.729684,34.0972)"
       gradientUnits="userSpaceOnUse"
       xlink:href="#linearGradient3907"
       id="radialGradient7266"
       fy="47.045319"
       fx="20.913568"
       r="19.5"
       cy="47.045319"
       cx="20.913568" />
    <radialGradient
       gradientTransform="matrix(1.382603,3.581398e-5,0,0.171503,-6.729684,34.0972)"
       gradientUnits="userSpaceOnUse"
       xlink:href="#linearGradient3907"
       id="radialGradient7264"
       fy="47.045319"
       fx="20.913568"
       r="19.5"
       cy="47.045319"
       cx="20.913568" />
    <radialGradient
       gradientTransform="matrix(1.382603,3.581398e-5,0,0.171503,-6.729684,34.0972)"
       gradientUnits="userSpaceOnUse"
       xlink:href="#linearGradient3907"
       id="radialGradient7262"
       fy="47.045319"
       fx="20.913568"
       r="19.5"
       cy="47.045319"
       cx="20.913568" />
    <radialGradient
       gradientTransform="matrix(1.382603,3.581398e-5,0,0.171503,-6.729684,34.0972)"
       gradientUnits="userSpaceOnUse"
       xlink:href="#linearGradient3907"
       id="radialGradient7260"
       fy="47.045319"
       fx="20.913568"
       r="19.5"
       cy="47.045319"
       cx="20.913568" />
    <radialGradient
       gradientTransform="matrix(1.382603,3.581398e-5,0,0.171503,-6.729684,34.0972)"
       gradientUnits="userSpaceOnUse"
       xlink:href="#linearGradient3907"
       id="radialGradient7258"
       fy="47.045319"
       fx="20.913568"
       r="19.5"
       cy="47.045319"
       cx="20.913568" />
    <radialGradient
       gradientTransform="matrix(1.382603,3.581398e-5,0,0.171503,-6.729684,34.0972)"
       gradientUnits="userSpaceOnUse"
       xlink:href="#linearGradient3907"
       id="radialGradient7256"
       fy="47.045319"
       fx="20.913568"
       r="19.5"
       cy="47.045319"
       cx="20.913568" />
    <radialGradient
       gradientTransform="matrix(1.382603,3.581398e-5,0,0.171503,-6.729684,34.0972)"
       gradientUnits="userSpaceOnUse"
       xlink:href="#linearGradient3907"
       id="radialGradient7254"
       fy="47.045319"
       fx="20.913568"
       r="19.5"
       cy="47.045319"
       cx="20.913568" />
    <radialGradient
       gradientTransform="matrix(1.382603,3.581398e-5,0,0.171503,-6.729684,34.0972)"
       gradientUnits="userSpaceOnUse"
       xlink:href="#linearGradient3907"
       id="radialGradient7252"
       fy="47.045319"
       fx="20.913568"
       r="19.5"
       cy="47.045319"
       cx="20.913568" />
    <radialGradient
       gradientTransform="matrix(1.382603,3.581398e-5,0,0.171503,-6.729684,34.0972)"
       gradientUnits="userSpaceOnUse"
       xlink:href="#linearGradient3907"
       id="radialGradient7250"
       fy="47.045319"
       fx="20.913568"
       r="19.5"
       cy="47.045319"
       cx="20.913568" />
    <radialGradient
       gradientTransform="matrix(1.382603,3.581398e-5,0,0.171503,-6.729684,34.0972)"
       gradientUnits="userSpaceOnUse"
       xlink:href="#linearGradient3907"
       id="radialGradient7248"
       fy="47.045319"
       fx="20.913568"
       r="19.5"
       cy="47.045319"
       cx="20.913568" />
    <radialGradient
       gradientTransform="matrix(1.382603,3.581398e-5,0,0.171503,-6.729684,34.0972)"
       gradientUnits="userSpaceOnUse"
       xlink:href="#linearGradient3907"
       id="radialGradient7246"
       fy="47.045319"
       fx="20.913568"
       r="19.5"
       cy="47.045319"
       cx="20.913568" />
    <radialGradient
       gradientTransform="matrix(1.382603,3.581398e-5,0,0.171503,-6.729684,34.0972)"
       gradientUnits="userSpaceOnUse"
       xlink:href="#linearGradient3907"
       id="radialGradient7244"
       fy="47.045319"
       fx="20.913568"
       r="19.5"
       cy="47.045319"
       cx="20.913568" />
    <radialGradient
       gradientTransform="matrix(1.382603,3.581398e-5,0,0.171503,-6.729684,34.0972)"
       gradientUnits="userSpaceOnUse"
       xlink:href="#linearGradient3907"
       id="radialGradient7242"
       fy="47.045319"
       fx="20.913568"
       r="19.5"
       cy="47.045319"
       cx="20.913568" />
    <radialGradient
       gradientTransform="matrix(1.382603,3.581398e-5,0,0.171503,-6.729684,34.0972)"
       gradientUnits="userSpaceOnUse"
       xlink:href="#linearGradient3907"
       id="radialGradient7240"
       fy="47.045319"
       fx="20.913568"
       r="19.5"
       cy="47.045319"
       cx="20.913568" />
    <radialGradient
       gradientTransform="matrix(1.382603,3.581398e-5,0,0.171503,-6.729684,34.0972)"
       gradientUnits="userSpaceOnUse"
       xlink:href="#linearGradient3907"
       id="radialGradient7238"
       fy="47.045319"
       fx="20.913568"
       r="19.5"
       cy="47.045319"
       cx="20.913568" />
    <radialGradient
       gradientTransform="matrix(1.382603,3.581398e-5,0,0.171503,-6.729684,34.0972)"
       gradientUnits="userSpaceOnUse"
       xlink:href="#linearGradient3907"
       id="radialGradient7236"
       fy="47.045319"
       fx="20.913568"
       r="19.5"
       cy="47.045319"
       cx="20.913568" />
    <radialGradient
       gradientTransform="matrix(1.382603,3.581398e-5,0,0.171503,-6.729684,34.0972)"
       gradientUnits="userSpaceOnUse"
       xlink:href="#linearGradient3907"
       id="radialGradient7234"
       fy="47.045319"
       fx="20.913568"
       r="19.5"
       cy="47.045319"
       cx="20.913568" />
    <radialGradient
       gradientTransform="matrix(1.382603,3.581398e-5,0,0.171503,-6.729684,34.0972)"
       gradientUnits="userSpaceOnUse"
       xlink:href="#linearGradient3907"
       id="radialGradient7232"
       fy="47.045319"
       fx="20.913568"
       r="19.5"
       cy="47.045319"
       cx="20.913568" />
    <radialGradient
       gradientTransform="matrix(1.382603,3.581398e-5,0,0.171503,-6.729684,34.0972)"
       gradientUnits="userSpaceOnUse"
       xlink:href="#linearGradient3907"
       id="radialGradient7230"
       fy="47.045319"
       fx="20.913568"
       r="19.5"
       cy="47.045319"
       cx="20.913568" />
    <radialGradient
       gradientTransform="matrix(1.382603,3.581398e-5,0,0.171503,-6.729684,34.0972)"
       gradientUnits="userSpaceOnUse"
       xlink:href="#linearGradient3907"
       id="radialGradient7228"
       fy="47.045319"
       fx="20.913568"
       r="19.5"
       cy="47.045319"
       cx="20.913568" />
    <radialGradient
       gradientTransform="matrix(1.382603,3.581398e-5,0,0.171503,-6.729684,34.0972)"
       gradientUnits="userSpaceOnUse"
       xlink:href="#linearGradient3907"
       id="radialGradient7226"
       fy="47.045319"
       fx="20.913568"
       r="19.5"
       cy="47.045319"
       cx="20.913568" />
    <radialGradient
       gradientTransform="matrix(1.382603,3.581398e-5,0,0.171503,-6.729684,34.0972)"
       gradientUnits="userSpaceOnUse"
       xlink:href="#linearGradient3907"
       id="radialGradient7224"
       fy="47.045319"
       fx="20.913568"
       r="19.5"
       cy="47.045319"
       cx="20.913568" />
    <radialGradient
       gradientTransform="matrix(1.382603,3.581398e-5,0,0.171503,-6.729684,34.0972)"
       gradientUnits="userSpaceOnUse"
       xlink:href="#linearGradient3907"
       id="radialGradient7222"
       fy="47.045319"
       fx="20.913568"
       r="19.5"
       cy="47.045319"
       cx="20.913568" />
    <radialGradient
       gradientTransform="matrix(1.382603,3.581398e-5,0,0.171503,-6.729684,34.0972)"
       gradientUnits="userSpaceOnUse"
       xlink:href="#linearGradient3907"
       id="radialGradient7220"
       fy="47.045319"
       fx="20.913568"
       r="19.5"
       cy="47.045319"
       cx="20.913568" />
    <radialGradient
       gradientTransform="matrix(1.382603,3.581398e-5,0,0.171503,-6.729684,34.0972)"
       gradientUnits="userSpaceOnUse"
       xlink:href="#linearGradient3907"
       id="radialGradient7218"
       fy="47.045319"
       fx="20.913568"
       r="19.5"
       cy="47.045319"
       cx="20.913568" />
    <radialGradient
       gradientTransform="matrix(1.382603,3.581398e-5,0,0.171503,-6.729684,34.0972)"
       gradientUnits="userSpaceOnUse"
       xlink:href="#linearGradient3907"
       id="radialGradient7216"
       fy="47.045319"
       fx="20.913568"
       r="19.5"
       cy="47.045319"
       cx="20.913568" />
    <radialGradient
       gradientTransform="matrix(1.382603,3.581398e-5,0,0.171503,-6.729684,34.0972)"
       gradientUnits="userSpaceOnUse"
       xlink:href="#linearGradient3907"
       id="radialGradient7214"
       fy="47.045319"
       fx="20.913568"
       r="19.5"
       cy="47.045319"
       cx="20.913568" />
    <radialGradient
       gradientTransform="matrix(1.382603,3.581398e-5,0,0.171503,-6.729684,34.0972)"
       gradientUnits="userSpaceOnUse"
       xlink:href="#linearGradient3907"
       id="radialGradient7212"
       fy="47.045319"
       fx="20.913568"
       r="19.5"
       cy="47.045319"
       cx="20.913568" />
    <radialGradient
       gradientTransform="matrix(1.382603,3.581398e-5,0,0.171503,-6.729684,34.0972)"
       gradientUnits="userSpaceOnUse"
       xlink:href="#linearGradient3907"
       id="radialGradient7210"
       fy="47.045319"
       fx="20.913568"
       r="19.5"
       cy="47.045319"
       cx="20.913568" />
    <radialGradient
       gradientTransform="matrix(1.382603,3.581398e-5,0,0.171503,-6.729684,34.0972)"
       gradientUnits="userSpaceOnUse"
       xlink:href="#linearGradient3907"
       id="radialGradient7208"
       fy="47.045319"
       fx="20.913568"
       r="19.5"
       cy="47.045319"
       cx="20.913568" />
    <radialGradient
       gradientTransform="matrix(1.382603,3.581398e-5,0,0.171503,-6.729684,34.0972)"
       gradientUnits="userSpaceOnUse"
       xlink:href="#linearGradient3907"
       id="radialGradient7206"
       fy="47.045319"
       fx="20.913568"
       r="19.5"
       cy="47.045319"
       cx="20.913568" />
    <radialGradient
       gradientTransform="matrix(1.382603,3.581398e-5,0,0.171503,-6.729684,34.0972)"
       gradientUnits="userSpaceOnUse"
       xlink:href="#linearGradient3907"
       id="radialGradient7204"
       fy="47.045319"
       fx="20.913568"
       r="19.5"
       cy="47.045319"
       cx="20.913568" />
    <radialGradient
       gradientTransform="matrix(1.382603,3.581398e-5,0,0.171503,-6.729684,34.0972)"
       gradientUnits="userSpaceOnUse"
       xlink:href="#linearGradient3907"
       id="radialGradient7202"
       fy="47.045319"
       fx="20.913568"
       r="19.5"
       cy="47.045319"
       cx="20.913568" />
    <radialGradient
       gradientTransform="matrix(1.382603,3.581398e-5,0,0.171503,-6.729684,34.0972)"
       gradientUnits="userSpaceOnUse"
       xlink:href="#linearGradient3907"
       id="radialGradient7200"
       fy="47.045319"
       fx="20.913568"
       r="19.5"
       cy="47.045319"
       cx="20.913568" />
    <radialGradient
       gradientTransform="matrix(1.382603,3.581398e-5,0,0.171503,-6.729684,34.0972)"
       gradientUnits="userSpaceOnUse"
       xlink:href="#linearGradient3907"
       id="radialGradient7198"
       fy="47.045319"
       fx="20.913568"
       r="19.5"
       cy="47.045319"
       cx="20.913568" />
    <radialGradient
       gradientTransform="matrix(1.382603,3.581398e-5,0,0.171503,-6.729684,34.0972)"
       gradientUnits="userSpaceOnUse"
       xlink:href="#linearGradient3907"
       id="radialGradient7196"
       fy="47.045319"
       fx="20.913568"
       r="19.5"
       cy="47.045319"
       cx="20.913568" />
    <radialGradient
       gradientTransform="matrix(1.382603,3.581398e-5,0,0.171503,-6.729684,34.0972)"
       gradientUnits="userSpaceOnUse"
       xlink:href="#linearGradient3907"
       id="radialGradient7194"
       fy="47.045319"
       fx="20.913568"
       r="19.5"
       cy="47.045319"
       cx="20.913568" />
    <radialGradient
       gradientTransform="matrix(1.382603,3.581398e-5,0,0.171503,-6.729684,34.0972)"
       gradientUnits="userSpaceOnUse"
       xlink:href="#linearGradient3907"
       id="radialGradient7192"
       fy="47.045319"
       fx="20.913568"
       r="19.5"
       cy="47.045319"
       cx="20.913568" />
    <radialGradient
       gradientTransform="matrix(1.382603,3.581398e-5,0,0.171503,-6.729684,34.0972)"
       gradientUnits="userSpaceOnUse"
       xlink:href="#linearGradient3907"
       id="radialGradient7190"
       fy="47.045319"
       fx="20.913568"
       r="19.5"
       cy="47.045319"
       cx="20.913568" />
    <radialGradient
       gradientTransform="matrix(1.382603,3.581398e-5,0,0.171503,-6.729684,34.0972)"
       gradientUnits="userSpaceOnUse"
       xlink:href="#linearGradient3907"
       id="radialGradient7188"
       fy="47.045319"
       fx="20.913568"
       r="19.5"
       cy="47.045319"
       cx="20.913568" />
    <radialGradient
       gradientTransform="matrix(1.382603,3.581398e-5,0,0.171503,-6.729684,34.0972)"
       gradientUnits="userSpaceOnUse"
       xlink:href="#linearGradient3907"
       id="radialGradient7186"
       fy="47.045319"
       fx="20.913568"
       r="19.5"
       cy="47.045319"
       cx="20.913568" />
    <radialGradient
       gradientTransform="matrix(1.382603,3.581398e-5,0,0.171503,-6.729684,34.0972)"
       gradientUnits="userSpaceOnUse"
       xlink:href="#linearGradient3907"
       id="radialGradient7184"
       fy="47.045319"
       fx="20.913568"
       r="19.5"
       cy="47.045319"
       cx="20.913568" />
    <radialGradient
       gradientTransform="matrix(1.382603,3.581398e-5,0,0.171503,-6.729684,34.0972)"
       gradientUnits="userSpaceOnUse"
       xlink:href="#linearGradient3907"
       id="radialGradient7182"
       fy="47.045319"
       fx="20.913568"
       r="19.5"
       cy="47.045319"
       cx="20.913568" />
    <radialGradient
       gradientTransform="matrix(1.382603,3.581398e-5,0,0.171503,-6.729684,34.0972)"
       gradientUnits="userSpaceOnUse"
       xlink:href="#linearGradient3907"
       id="radialGradient7180"
       fy="47.045319"
       fx="20.913568"
       r="19.5"
       cy="47.045319"
       cx="20.913568" />
    <radialGradient
       gradientTransform="matrix(1.382603,3.581398e-5,0,0.171503,-6.729684,34.0972)"
       gradientUnits="userSpaceOnUse"
       xlink:href="#linearGradient3907"
       id="radialGradient7178"
       fy="47.045319"
       fx="20.913568"
       r="19.5"
       cy="47.045319"
       cx="20.913568" />
    <radialGradient
       gradientTransform="matrix(1.382603,3.581398e-5,0,0.171503,-6.729684,34.0972)"
       gradientUnits="userSpaceOnUse"
       xlink:href="#linearGradient3907"
       id="radialGradient7176"
       fy="47.045319"
       fx="20.913568"
       r="19.5"
       cy="47.045319"
       cx="20.913568" />
    <radialGradient
       gradientTransform="matrix(1.382603,3.581398e-5,0,0.171503,-6.729684,34.0972)"
       gradientUnits="userSpaceOnUse"
       xlink:href="#linearGradient3907"
       id="radialGradient7174"
       fy="47.045319"
       fx="20.913568"
       r="19.5"
       cy="47.045319"
       cx="20.913568" />
    <radialGradient
       gradientTransform="matrix(1.382603,3.581398e-5,0,0.171503,-6.729684,34.0972)"
       gradientUnits="userSpaceOnUse"
       xlink:href="#linearGradient3907"
       id="radialGradient7172"
       fy="47.045319"
       fx="20.913568"
       r="19.5"
       cy="47.045319"
       cx="20.913568" />
    <radialGradient
       gradientTransform="matrix(1.382603,3.581398e-5,0,0.171503,-6.729684,34.0972)"
       gradientUnits="userSpaceOnUse"
       xlink:href="#linearGradient3907"
       id="radialGradient7170"
       fy="47.045319"
       fx="20.913568"
       r="19.5"
       cy="47.045319"
       cx="20.913568" />
    <radialGradient
       gradientTransform="matrix(1.382603,3.581398e-5,0,0.171503,-6.729684,34.0972)"
       gradientUnits="userSpaceOnUse"
       xlink:href="#linearGradient3907"
       id="radialGradient7168"
       fy="47.045319"
       fx="20.913568"
       r="19.5"
       cy="47.045319"
       cx="20.913568" />
    <radialGradient
       gradientTransform="matrix(1.382603,3.581398e-5,0,0.171503,-6.729684,34.0972)"
       gradientUnits="userSpaceOnUse"
       xlink:href="#linearGradient3907"
       id="radialGradient7166"
       fy="47.045319"
       fx="20.913568"
       r="19.5"
       cy="47.045319"
       cx="20.913568" />
    <radialGradient
       gradientTransform="matrix(1.382603,3.581398e-5,0,0.171503,-6.729684,34.0972)"
       gradientUnits="userSpaceOnUse"
       xlink:href="#linearGradient3907"
       id="radialGradient7164"
       fy="47.045319"
       fx="20.913568"
       r="19.5"
       cy="47.045319"
       cx="20.913568" />
    <linearGradient
       gradientTransform="matrix(1,0,0,0.833169,-48,19.08245)"
       gradientUnits="userSpaceOnUse"
       xlink:href="#linearGradient1558"
       id="linearGradient7162"
       y2="32.448051"
       x2="16.396038"
       y1="19.659277"
       x1="16.396038" />
    <linearGradient
       gradientTransform="matrix(1,0,0,0.753044,-48,12.25251)"
       gradientUnits="userSpaceOnUse"
       xlink:href="#linearGradient3899"
       id="linearGradient7160"
       y2="35.75"
       x2="26.5"
       y1="43.249905"
       x1="26.5" />
    <linearGradient
       gradientTransform="matrix(1,0,0,0.888889,0,3.833333)"
       gradientUnits="userSpaceOnUse"
       xlink:href="#linearGradient3042"
       id="linearGradient7158"
       y2="29.995127"
       x2="37.03125"
       y1="35.062885"
       x1="37.03125" />
    <radialGradient
       gradientTransform="matrix(0,-0.750002,1.333334,0,-88.28573,-30.49999)"
       gradientUnits="userSpaceOnUse"
       xlink:href="#linearGradient3028"
       id="radialGradient7156"
       fy="33.214287"
       fx="2.9999995"
       r="3"
       cy="33.214287"
       cx="2.9999995" />
    <radialGradient
       gradientTransform="matrix(0,-0.750002,1.333334,0,-40.28573,35.00001)"
       gradientUnits="userSpaceOnUse"
       xlink:href="#linearGradient3028"
       id="radialGradient7154"
       fy="33.214287"
       fx="2.9999995"
       r="3"
       cy="33.214287"
       cx="2.9999995" />
    <linearGradient
       gradientTransform="translate(-0.0235294,-3.039216)"
       gradientUnits="userSpaceOnUse"
       xlink:href="#linearGradient6240"
       id="linearGradient7152"
       y2="26.039215"
       x2="20.156862"
       y1="5.0996137"
       x1="20.156862" />
    <radialGradient
       gradientTransform="matrix(1.232634,0,0,0.778392,-5.590582,-0.847446)"
       gradientUnits="userSpaceOnUse"
       xlink:href="#linearGradient5233"
       id="radialGradient7150"
       fy="32.997028"
       fx="24.006104"
       r="19.00016"
       cy="32.997028"
       cx="24.006104" />
    <linearGradient
       gradientTransform="matrix(0.999303,0,0,0.998527,0.00306126,-2.971316)"
       gradientUnits="userSpaceOnUse"
       xlink:href="#linearGradient5137"
       id="linearGradient7148"
       y2="38.876041"
       x2="39.904388"
       y1="6.3760414"
       x1="17.247635" />
    <linearGradient
       gradientTransform="matrix(1.004187,0,0,1,-0.12454,-3.011765)"
       gradientUnits="userSpaceOnUse"
       xlink:href="#linearGradient11400"
       id="linearGradient7146"
       y2="40.219608"
       x2="23.529411"
       y1="34.572548"
       x1="23.154902" />
    <linearGradient
       gradientTransform="matrix(1,0,0,0.992781,0,-2.718035)"
       gradientUnits="userSpaceOnUse"
       xlink:href="#linearGradient5137"
       id="linearGradient7144"
       y2="43.82579"
       x2="31.86105"
       y1="37.842293"
       x1="31.743324" />
    <linearGradient
       gradientTransform="translate(24,0)"
       gradientUnits="userSpaceOnUse"
       xlink:href="#linearGradient4196"
       id="linearGradient7142"
       y2="33.637787"
       x2="37.295498"
       y1="38.267769"
       x1="37.484837" />
    <radialGradient
       gradientTransform="matrix(1,0,0,0.24763,0,32.1168)"
       gradientUnits="userSpaceOnUse"
       xlink:href="#linearGradient5225"
       id="radialGradient7140"
       fy="42.6875"
       fx="23.9375"
       r="23.75956"
       cy="42.6875"
       cx="23.9375" />
    <radialGradient
       gradientTransform="matrix(1.382603,3.581398e-5,0,0.171503,-6.729684,34.0972)"
       gradientUnits="userSpaceOnUse"
       xlink:href="#linearGradient3907"
       id="radialGradient6224"
       fy="47.045319"
       fx="20.913568"
       r="19.5"
       cy="47.045319"
       cx="20.913568" />
    <radialGradient
       gradientTransform="matrix(1.382603,3.581398e-5,0,0.171503,-6.729684,34.0972)"
       gradientUnits="userSpaceOnUse"
       xlink:href="#linearGradient3907"
       id="radialGradient5195"
       fy="47.045319"
       fx="20.913568"
       r="19.5"
       cy="47.045319"
       cx="20.913568" />
    <radialGradient
       gradientTransform="matrix(1.382603,3.581398e-5,0,0.171503,-6.729684,34.0972)"
       gradientUnits="userSpaceOnUse"
       xlink:href="#linearGradient3907"
       id="radialGradient4855"
       fy="47.045319"
       fx="20.913568"
       r="19.5"
       cy="47.045319"
       cx="20.913568" />
    <linearGradient
       id="linearGradient4196">
      <stop
         offset="0"
         style="stop-color:#000000;stop-opacity:1"
         id="stop4198" />
      <stop
         offset="1"
         style="stop-color:#000000;stop-opacity:0"
         id="stop4200" />
    </linearGradient>
    <linearGradient
       id="linearGradient3907">
      <stop
         offset="0"
         style="stop-color:#ffffff;stop-opacity:1"
         id="stop3909" />
      <stop
         offset="1"
         style="stop-color:#ffffff;stop-opacity:0"
         id="stop3911" />
    </linearGradient>
    <linearGradient
       id="linearGradient3899">
      <stop
         offset="0"
         style="stop-color:#eeeeec;stop-opacity:1"
         id="stop3901" />
      <stop
         offset="1"
         style="stop-color:#d3d7cf;stop-opacity:1"
         id="stop3903" />
    </linearGradient>
    <linearGradient
       id="linearGradient5233">
      <stop
         offset="0"
         style="stop-color:#729fcf;stop-opacity:1"
         id="stop5235" />
      <stop
         offset="1"
         style="stop-color:#326194;stop-opacity:1"
         id="stop5237" />
    </linearGradient>
    <linearGradient
       id="linearGradient5225">
      <stop
         offset="0"
         style="stop-color:#000000;stop-opacity:1"
         id="stop5227" />
      <stop
         offset="1"
         style="stop-color:#000000;stop-opacity:0"
         id="stop5229" />
    </linearGradient>
    <linearGradient
       id="linearGradient5137">
      <stop
         offset="0"
         style="stop-color:#eeeeec;stop-opacity:1"
         id="stop5139" />
      <stop
         offset="1"
         style="stop-color:#e6e6e3;stop-opacity:1"
         id="stop5141" />
    </linearGradient>
    <linearGradient
       id="linearGradient6240">
      <stop
         offset="0"
         style="stop-color:#ffffff;stop-opacity:1"
         id="stop6242" />
      <stop
         offset="1"
         style="stop-color:#ffffff;stop-opacity:0"
         id="stop6244" />
    </linearGradient>
    <linearGradient
       id="linearGradient11400">
      <stop
         offset="0"
         style="stop-color:#000000;stop-opacity:1"
         id="stop11402" />
      <stop
         offset="1"
         style="stop-color:#000000;stop-opacity:0"
         id="stop11404" />
    </linearGradient>
    <linearGradient
       id="linearGradient1558">
      <stop
         offset="0"
         style="stop-color:#babdb6;stop-opacity:1"
         id="stop1560" />
      <stop
         offset="1"
         style="stop-color:#eeeeec;stop-opacity:1"
         id="stop1562" />
    </linearGradient>
    <linearGradient
       id="linearGradient3028">
      <stop
         offset="0"
         style="stop-color:#000000;stop-opacity:1"
         id="stop3030" />
      <stop
         offset="1"
         style="stop-color:#000000;stop-opacity:0"
         id="stop3032" />
    </linearGradient>
    <linearGradient
       id="linearGradient3042">
      <stop
         offset="0"
         style="stop-color:#000000;stop-opacity:0"
         id="stop3044" />
      <stop
         offset="0.5"
         style="stop-color:#000000;stop-opacity:1"
         id="stop3050" />
      <stop
         offset="1"
         style="stop-color:#000000;stop-opacity:0"
         id="stop3046" />
    </linearGradient>
    <linearGradient
       gradientTransform="translate(69.00259,102)"
       gradientUnits="userSpaceOnUse"
       xlink:href="#linearGradient8302"
       id="linearGradient10632"
       y2="-375.37952"
       x2="278.9151"
       y1="-392.30591"
       x1="228.50261" />
    <linearGradient
       id="linearGradient8302">
      <stop
         offset="0"
         style="stop-color:#ffffff;stop-opacity:1"
         id="stop8304" />
      <stop
         offset="1"
         style="stop-color:#ffffff;stop-opacity:0"
         id="stop8306" />
    </linearGradient>
    <linearGradient
       gradientUnits="userSpaceOnUse"
       xlink:href="#linearGradient8331"
       id="linearGradient10634"
       y2="-388.55029"
       x2="245.82706"
       y1="-393.4072"
       x1="240.07379" />
    <linearGradient
       id="linearGradient8331">
      <stop
         offset="0"
         style="stop-color:#ffffff;stop-opacity:1"
         id="stop8333" />
      <stop
         offset="1"
         style="stop-color:#ffffff;stop-opacity:0"
         id="stop8335" />
    </linearGradient>
    <linearGradient
       gradientUnits="userSpaceOnUse"
       xlink:href="#linearGradient8381"
       id="linearGradient10636"
       y2="-385.35165"
       x2="252.69785"
       y1="-391.31381"
       x1="246.74042" />
    <linearGradient
       id="linearGradient8381">
      <stop
         offset="0"
         style="stop-color:#ffffff;stop-opacity:1"
         id="stop8383" />
      <stop
         offset="1"
         style="stop-color:#ffffff;stop-opacity:0"
         id="stop8385" />
    </linearGradient>
    <linearGradient
       gradientUnits="userSpaceOnUse"
       xlink:href="#linearGradient8315"
       id="linearGradient10638"
       y2="-386.95901"
       x2="235.25652"
       y1="-390.43951"
       x1="230.87598" />
    <linearGradient
       id="linearGradient8315">
      <stop
         offset="0"
         style="stop-color:#ffffff;stop-opacity:1"
         id="stop8317" />
      <stop
         offset="1"
         style="stop-color:#ffffff;stop-opacity:0"
         id="stop8319" />
    </linearGradient>
    <linearGradient
       gradientUnits="userSpaceOnUse"
       xlink:href="#linearGradient8397"
       id="linearGradient10640"
       y2="-382.64539"
       x2="245.65462"
       y1="-388.47476"
       x1="238.00478" />
    <linearGradient
       id="linearGradient8397">
      <stop
         offset="0"
         style="stop-color:#ffffff;stop-opacity:1"
         id="stop8400" />
      <stop
         offset="1"
         style="stop-color:#ffffff;stop-opacity:0"
         id="stop8402" />
    </linearGradient>
    <linearGradient
       gradientUnits="userSpaceOnUse"
       xlink:href="#linearGradient7834"
       id="linearGradient10642"
       y2="-96.544556"
       x2="-153.0981"
       y1="-100.53421"
       x1="-156.29044" />
    <linearGradient
       id="linearGradient7834">
      <stop
         offset="0"
         style="stop-color:#ffffff;stop-opacity:1"
         id="stop7836" />
      <stop
         offset="1"
         style="stop-color:#ffffff;stop-opacity:0"
         id="stop7838" />
    </linearGradient>
    <linearGradient
       gradientUnits="userSpaceOnUse"
       xlink:href="#linearGradient6470"
       id="linearGradient10644"
       y2="-431.96991"
       x2="285.02859"
       y1="-441.05182"
       x1="271.0217" />
    <linearGradient
       id="linearGradient6470">
      <stop
         offset="0"
         style="stop-color:#ffffff;stop-opacity:1"
         id="stop6472" />
      <stop
         offset="1"
         style="stop-color:#ffffff;stop-opacity:0"
         id="stop6474" />
    </linearGradient>
    <linearGradient
       gradientUnits="userSpaceOnUse"
       xlink:href="#linearGradient6497"
       id="linearGradient10646"
       y2="-436.32199"
       x2="289.67633"
       y1="-439.75281"
       x1="287.5173" />
    <linearGradient
       id="linearGradient6497">
      <stop
         offset="0"
         style="stop-color:#ffffff;stop-opacity:1"
         id="stop6499" />
      <stop
         offset="1"
         style="stop-color:#ffffff;stop-opacity:0"
         id="stop6501" />
    </linearGradient>
    <linearGradient
       gradientUnits="userSpaceOnUse"
       xlink:href="#linearGradient6513"
       id="linearGradient10648"
       y2="-436.14453"
       x2="289.85379"
       y1="-441.29074"
       x1="286.51172" />
    <linearGradient
       id="linearGradient6513">
      <stop
         offset="0"
         style="stop-color:#ffffff;stop-opacity:1"
         id="stop6515" />
      <stop
         offset="1"
         style="stop-color:#ffffff;stop-opacity:0"
         id="stop6517" />
    </linearGradient>
    <linearGradient
       gradientUnits="userSpaceOnUse"
       xlink:href="#linearGradient6538"
       id="linearGradient10650"
       y2="-436.4429"
       x2="289.39124"
       y1="-439.939"
       x1="285.94086" />
    <linearGradient
       id="linearGradient6538">
      <stop
         offset="0"
         style="stop-color:#ffffff;stop-opacity:1"
         id="stop6540" />
      <stop
         offset="1"
         style="stop-color:#ffffff;stop-opacity:0"
         id="stop6542" />
    </linearGradient>
    <linearGradient
       gradientUnits="userSpaceOnUse"
       xlink:href="#linearGradient6527"
       id="linearGradient10652"
       y2="-431.91833"
       x2="279.97546"
       y1="-437.10501"
       x1="275.94193" />
    <linearGradient
       id="linearGradient6527">
      <stop
         offset="0"
         style="stop-color:#ffffff;stop-opacity:1"
         id="stop6530" />
      <stop
         offset="1"
         style="stop-color:#ffffff;stop-opacity:0"
         id="stop6532" />
    </linearGradient>
    <linearGradient
       gradientUnits="userSpaceOnUse"
       xlink:href="#linearGradient6549"
       id="linearGradient10654"
       y2="-436.70703"
       x2="289.76562"
       y1="-439.48358"
       x1="286.66589" />
    <linearGradient
       id="linearGradient6549">
      <stop
         offset="0"
         style="stop-color:#ffffff;stop-opacity:1"
         id="stop6551" />
      <stop
         offset="1"
         style="stop-color:#ffffff;stop-opacity:0"
         id="stop6553" />
    </linearGradient>
    <linearGradient
       gradientUnits="userSpaceOnUse"
       xlink:href="#linearGradient6538"
       id="linearGradient10656"
       y2="-436.83109"
       x2="288.89954"
       y1="-441.23294"
       x1="284.80219" />
    <linearGradient
       gradientUnits="userSpaceOnUse"
       xlink:href="#linearGradient6470"
       id="linearGradient10658"
       y2="-431.96991"
       x2="285.02859"
       y1="-441.05182"
       x1="271.0217" />
    <linearGradient
       gradientUnits="userSpaceOnUse"
       xlink:href="#linearGradient6497"
       id="linearGradient10660"
       y2="-436.32199"
       x2="289.67633"
       y1="-439.75281"
       x1="287.5173" />
    <linearGradient
       gradientUnits="userSpaceOnUse"
       xlink:href="#linearGradient6513"
       id="linearGradient10662"
       y2="-436.14453"
       x2="289.85379"
       y1="-441.29074"
       x1="286.51172" />
    <linearGradient
       gradientUnits="userSpaceOnUse"
       xlink:href="#linearGradient6538"
       id="linearGradient10664"
       y2="-436.4429"
       x2="289.39124"
       y1="-439.939"
       x1="285.94086" />
    <linearGradient
       gradientUnits="userSpaceOnUse"
       xlink:href="#linearGradient6527"
       id="linearGradient10666"
       y2="-431.91833"
       x2="279.97546"
       y1="-437.10501"
       x1="275.94193" />
    <linearGradient
       gradientUnits="userSpaceOnUse"
       xlink:href="#linearGradient6549"
       id="linearGradient10668"
       y2="-436.70703"
       x2="289.76562"
       y1="-439.48358"
       x1="286.66589" />
    <linearGradient
       gradientUnits="userSpaceOnUse"
       xlink:href="#linearGradient6538"
       id="linearGradient10670"
       y2="-436.83109"
       x2="288.89954"
       y1="-441.23294"
       x1="284.80219" />
  </defs>
  <sodipodi:namedview
     pagecolor="#ffffff"
     bordercolor="#666666"
     borderopacity="1"
     objecttolerance="10"
     gridtolerance="10"
     guidetolerance="10"
     inkscape:pageopacity="0"
     inkscape:pageshadow="2"
     inkscape:window-width="1393"
     inkscape:window-height="876"
     id="namedview3047"
     showgrid="false"
     inkscape:zoom="0.49166667"
     inkscape:cx="320"
     inkscape:cy="240"
     inkscape:window-x="47"
     inkscape:window-y="24"
     inkscape:window-maximized="1"
     inkscape:current-layer="layer1" />
  <title
     id="title3039">RED SKYLINE</title>
  <metadata
     id="metadata7">image/svg+xml<rdf:RDF>
  <cc:Work
     rdf:about="">
    <dc:format>image/svg+xml</dc:format>
    <dc:type
       rdf:resource="http://purl.org/dc/dcmitype/StillImage" />
    <dc:title>RED SKYLINE</dc:title>
  </cc:Work>
</rdf:RDF>
</metadata>
  <g
     transform="matrix(0.32304356,0,0,0.32304356,12.409674,-56.772301)"
     inkscape:label="Layer 1"
     id="layer1">
    <g
       transform="matrix(0.31509663,0,0,0.31509663,470.73405,473.93395)"
       id="g2932">
      <path
         style="fill:#888a85;fill-opacity:1"
         d="m -1495.6949,1663.3971 0,-254.9758 16.75,-0.2742 16.75,-0.2742 0.2627,-18.5 c 0.2302,-16.2059 0.4782,-18.6627 2,-19.8118 1.649,-1.2451 1.6483,-1.3779 -0.013,-2.6103 -2.4608,-1.8258 -2.1753,-5.9439 0.7314,-10.5483 2.0378,-3.2282 2.6513,-5.9501 3.4326,-15.2301 0.5232,-6.2147 0.9482,-11.9745 0.9444,-12.7995 0,-0.825 0.178,-3.8952 0.404,-6.8227 0.3163,-4.0947 -0.013,-5.8614 -1.4256,-7.6577 -1.0102,-1.2843 -1.8368,-3.5195 -1.8368,-4.9672 0,-1.4476 -0.8971,-4.3906 -1.9936,-6.54 l -1.9937,-3.9079 2.2162,-1.5522 c 1.2189,-0.8538 3.241,-1.5523 4.4936,-1.5523 1.2527,0 2.3141,-0.3375 2.3588,-0.75 0.045,-0.4125 0.232,-2.1 0.4164,-3.75 0.1843,-1.65 0.597,-9.75 0.9172,-18 0.3201,-8.25 0.8206,-18.1968 1.1121,-22.1039 0.4291,-5.7518 0.2245,-7.3575 -1.0751,-8.436 -1.3016,-1.0802 -1.478,-2.4788 -0.9329,-7.3961 0.5235,-4.7226 1.6538,-7.6542 5.1095,-13.2528 2.4979,-4.0468 5.8433,-8.0362 7.6544,-9.1279 5.2029,-3.136 13.1134,-4.5212 21.7207,-3.8034 8.5513,0.7132 9.5216,0.2442 10.5946,-5.1207 0.5287,-2.6433 0.2293,-3.2367 -2.2441,-4.4479 -2.4268,-1.1883 -2.8113,-1.9129 -2.5683,-4.8402 0.1572,-1.8935 0.7417,-3.8991 1.299,-4.4569 1.4583,-1.4597 71.1518,-1.8128 101.4788,-0.5141 22.6871,0.9714 41.0715,2.2365 48.9364,3.3672 1.65,0.2372 3.5596,-0.026 4.2435,-0.585 0.8636,-0.7059 2.3147,-0.5081 4.75,0.6476 3.3525,1.5909 3.5065,1.8947 3.5065,6.917 0,2.8892 -0.5265,5.7796 -1.1699,6.4231 -0.8933,0.8933 -0.8655,2.1821 0.1179,5.45 0.7083,2.354 1.4239,4.7858 1.5902,5.404 0.1978,0.7354 5.4292,1.3148 15.1321,1.6759 8.1563,0.3035 22.7047,1.2559 32.3297,2.1163 9.625,0.8605 23.8,2.0316 31.5,2.6025 7.7,0.5709 14.6262,1.2605 15.3915,1.5325 1.8606,0.6614 0.7019,14.1357 -1.417,16.477 -0.811,0.8961 -1.4745,2.6942 -1.4745,3.9958 0,1.3016 -1.1703,3.5881 -2.6007,5.0811 -2.4722,2.5805 -2.6489,3.4971 -3.576,18.5547 -0.5363,8.7121 -1.0535,20.5652 -1.1492,26.3402 l -0.1741,10.5 3.8059,0.3137 c 4.6222,0.381 5.5655,2.263 2.859,5.7039 -1.1146,1.417 -2.341,4.0177 -2.7252,5.7794 -0.3842,1.7616 -1.7653,4.475 -3.0691,6.0297 -2.0136,2.4011 -2.4048,4.0574 -2.5976,11 -0.1249,4.4953 -0.3523,11.0983 -0.5054,14.6733 -0.153,3.575 -0.2689,13.75 -0.2573,22.6112 0.011,8.8611 -0.3811,18.9861 -0.8725,22.5 -1.2165,8.6988 0.1126,17.8634 2.9204,20.137 1.1899,0.9635 2.9232,1.7518 3.8518,1.7518 2.3301,0 1.5783,-6.2481 -1.0366,-8.6145 -1.8853,-1.7063 -1.8659,-1.799 1.0077,-4.8126 2.8333,-2.9715 2.9537,-3.5021 3.6472,-16.0729 0.3945,-7.15 0.8349,-17.05 0.9786,-22 0.5598,-19.2776 1.731,-30.9674 3.2812,-32.75 1.3405,-1.5414 3.5974,-1.75 18.9327,-1.75 18.1928,0 21.2792,0.6008 21.2792,4.1422 0,1.256 0.4922,1.876 1.25,1.5745 13.4577,-5.3536 18.8875,-5.7167 85.4929,-5.7167 32.52646,0 59.36116,-0.3594 59.63266,-0.7987 0.2715,-0.4393 0.634,-6.9253 0.8056,-14.4134 l 0.312,-13.6146 8.5034,-0.5169 c 4.6769,-0.2843 12.935,-0.549 18.3514,-0.5882 5.4163,-0.039 10.2538,-0.3221 10.75,-0.6287 0.4961,-0.3067 0.902,-4.8283 0.902,-10.0482 0,-12.5341 1.0302,-14.5134 8.6834,-16.6839 3.1991,-0.9073 12.5666,-2.1648 20.8166,-2.7944 17.0305,-1.2997 17.09,-1.3009 31.9653,-0.6642 12.8986,0.552 17.5347,-0.6978 17.5347,-4.727 0,-1.4428 0.8381,-2.9 2.037,-3.5416 1.415,-0.7573 17.3683,-0.997 52.25,-0.7852 l 50.213,0.305 0.5,6 0.5,6 20,0.613 c 11,0.3371 24.3151,0.6538 29.5892,0.7037 7.3494,0.07 9.8889,0.4519 10.8724,1.637 1.9044,2.2947 7.7239,2.0025 9.0384,-0.4537 1.4455,-2.701 3.996,-2.5183 6.4625,0.4627 1.7911,2.1648 3.0656,2.5267 10.5375,2.9919 19.8732,1.2373 30.1442,2.4202 31.615,3.6409 1.32,1.0954 1.4967,3.5093 1.143,15.6186 -0.4629,15.8473 0.1179,17.7607 4.6535,15.3333 1.9299,-1.0329 2.762,-0.9898 4.7159,0.2442 2.9508,1.8636 13.6808,2.8111 14.6546,1.2942 0.3833,-0.5972 0.9267,-3.5608 1.2075,-6.5858 l 0.5105,-5.5 44.5,-0.1148 c 36.1854,-0.093 45.0139,0.145 47.25,1.2757 3.1439,1.5896 3.0125,0.7493 2.7617,17.6617 -0.1627,10.9658 0.062,13.1017 1.554,14.75 2.3062,2.5483 3.2475,2.4315 4.6163,-0.5726 1.442,-3.1649 2.8542,-3.1549 5.8571,0.042 1.3744,1.463 3.2519,2.4178 4.4243,2.25 2.535,-0.363 3.2094,-5.215 4.002,-28.7916 0.3051,-9.075 0.7614,-17.625 1.014,-19 1.6897,-9.1968 3.5441,-26.4618 3.3832,-31.5 -0.1054,-3.3 0.3473,-16.8 1.0059,-30 0.6587,-13.2 1.5998,-32.1 2.0915,-42 0.4917,-9.9 0.9268,-24.1313 0.967,-31.625 0.084,-15.7678 0.6544,-19.5806 3.1242,-20.9024 0.9829,-0.5261 5.2254,-1.059 9.4279,-1.1843 4.2024,-0.1253 8.0126,-0.6914 8.467,-1.2581 0.4545,-0.5666 1.079,-7.7802 1.3878,-16.0302 0.3089,-8.25 1.0473,-25.125 1.6411,-37.5 1.0771,-22.4507 1.808,-43.4595 2.4004,-69 0.5199,-22.41435 1.7665,-48.28591 2.5037,-51.96112 0.6099,-3.04078 1.2016,-3.58727 4.8722,-4.5 2.2978,-0.5714 4.8256,-1.92945 5.6173,-3.01789 0.8195,-1.12671 3.5264,-2.42206 6.2854,-3.00778 l 4.846,-1.0288 0.1695,-10.49221 c 0.093,-5.77072 0.6505,-20.16722 1.2384,-31.99222 1.7341,-34.88402 1.9754,-40.10293 3.2594,-70.5 0.6738,-15.95 1.3201,-34.175 1.4364,-40.5 0.5371,-29.21986 1.9247,-52.92905 3.1705,-54.17458 1.3947,-1.39428 8.7744,-1.71489 11.3279,-0.49214 1.1194,0.53603 2.0752,0.0451 3.1724,-1.62952 1.2037,-1.837 1.6333,-5.73009 1.8399,-16.67075 0.266,-14.08809 0.9639,-17.03301 4.0366,-17.03301 3.4059,0 20.5914,-2.36798 21.7596,-2.99824 0.7759,-0.41858 1.9009,-2.25799 2.5,-4.08757 1.6541,-5.05099 8.6189,-9.91419 14.1985,-9.91419 5.1361,0 5.9913,1.16608 4.5864,6.25397 -1.7045,6.17319 1.2694,8.35662 6.8732,5.04636 2.7853,-1.64529 2.9569,-1.62487 5.3659,0.63827 2.3567,2.21401 3.0075,2.30856 12.277,1.78384 5.3836,-0.30476 14.391,-0.0878 20.0163,0.48224 l 10.228,1.03633 5.6026,-5.1205 c 7.6653,-7.00559 11.5679,-6.85959 9.575,0.3582 -0.5324,1.92806 -0.5817,3.74429 -0.1096,4.03605 1.7125,1.05837 16.2269,1.522 17.3914,0.55553 0.6512,-0.54041 2.9616,-1.26444 5.1343,-1.60895 3.1988,-0.50721 4.6354,-0.16008 7.5511,1.82466 2.6837,1.82685 5.485,2.60624 11,3.06048 4.0696,0.33519 13.4743,1.11634 20.8993,1.73588 7.7582,0.64734 14.4203,1.70577 15.6637,2.48855 1.1901,0.74916 3.4401,1.35389 5,1.34383 4.9535,-0.0319 15.5017,1.85067 16.6167,2.96569 1.1532,1.15321 1.218,8.512 0.1704,19.35431 -0.3579,3.7041 -0.3366,9.4416 0.047,12.75 0.7757,6.6834 1.9086,7.41366 6.2289,4.01526 2.9083,-2.28764 6.529,-2.60125 8.1052,-0.70204 0.5925,0.71388 1.1695,4.65138 1.2823,8.75 0.2236,8.12642 -1.4865,58.18183 -3.0219,88.45204 -0.53,10.45 -0.9425,19.9 -0.9166,21 0.026,1.1 -0.5262,15.5 -1.2268,32 -1.4263,33.58719 -1.4513,34.52305 -1.1588,43.25 0.1817,5.42169 0.4637,6.25 2.1277,6.25 3.2411,0 5.0818,1.12542 5.0818,3.10699 0,1.04115 -0.5748,1.89301 -1.2773,1.89301 -1.6159,0 -6.7227,5.75154 -6.7227,7.57144 0,0.75119 0.573,1.14593 1.2732,0.87721 0.7442,-0.28558 1.7469,0.76618 2.4132,2.53138 1.1127,2.94808 3.5894,4.0007 4.8009,2.04045 0.3601,-0.58263 1.2957,-0.63029 2.3091,-0.11763 0.937,0.47404 3.007,1.25233 4.6,1.72952 1.593,0.4772 3.2106,1.54263 3.5946,2.36763 0.384,0.825 1.2439,2.54776 1.911,3.82836 0.9222,1.77042 0.9348,2.66336 0.053,3.72636 -1.8659,2.24822 -2.8866,26.2433 -1.2891,30.3015 0.7267,1.8459 1.0514,3.7929 0.7215,4.3265 -0.3298,0.5337 -0.7161,2.3984 -0.8585,4.1438 -0.1424,1.7454 -0.7201,5.4235 -1.2838,8.1735 -0.5637,2.75 -1.102,11.7253 -1.1964,19.9451 -0.094,8.2198 -0.397,15.3101 -0.6727,15.7561 -0.2757,0.4461 -0.696,8.0575 -0.9342,16.9142 -0.2381,8.8567 -0.882,18.8664 -1.4309,22.2438 -0.5489,3.3774 -0.7146,10.8718 -0.3683,16.6542 l 0.6298,10.5135 4.114,-0.3759 c 2.2627,-0.2068 4.7344,-0.8879 5.4927,-1.5135 0.7583,-0.6256 3.2333,-1.608 5.5,-2.1831 l 4.1213,-1.0455 0.7019,-16.4545 c 0.386,-9.0499 0.9209,-24.1044 1.1886,-33.4544 0.4301,-15.02 2.0864,-57.0489 4.4635,-113.26314 0.4998,-11.82052 1.1919,-18.6828 1.9619,-19.45279 1.6223,-1.62231 14.0198,-2.34838 15.4626,-0.90558 0.6168,0.61682 1.5966,1.12149 2.1774,1.12149 2.5946,0 3.4027,-6.43165 4.081,-32.47748 0.3863,-14.83762 0.8738,-29.23762 1.0832,-32 0.2094,-2.76239 0.8151,-16.72252 1.3461,-31.02252 1.1904,-32.0614 1.6348,-43.24195 2.9814,-75 0.583,-13.75 1.2893,-31.9151 1.5694,-40.36688 0.2802,-8.45179 0.7722,-15.79204 1.0934,-16.31168 1.023796,-1.65662 5.390296,-2.83093 11.007796,-2.96044 4.1447,-0.0956 5.6845,-0.55804 6.4175,-1.92761 0.5303,-0.99105 0.9643,-8.52639 0.9643,-16.7452 0,-11.12711 0.3358,-15.22195 1.3147,-16.03443 0.7231,-0.60013 6.6856,-1.5896 13.25,-2.19883 13.9983,-1.29914 21.4792,-2.59882 22.8502,-3.96979 1.5302,-1.53021 7.8892,-1.16084 10.4099,0.60467 1.7015,1.19182 3.6973,1.45365 7.9725,1.0459 3.1365,-0.29915 6.1527,-0.58642 6.7027,-0.63838 0.55,-0.052 10.7263999,0.0879 22.6141999,0.31085 l 21.6142001,0.40531 2.6785,-3.35674 c 2.6979,-3.38123 5.5091,-4.42179 5.6916,-2.10675 0.054,0.6875 0.1667,2.375 0.25,3.75 0.1509,2.49035 0.1946,2.50109 11.3247,2.78203 9.7699,0.24662 11.5909,0.0273 14.5,-1.74626 4.9626,-3.02561 9.427,-2.70957 11.2396,0.79567 1.4579,2.81929 1.5278,2.83671 16.2757,4.05562 28.934404,2.39144 33.429604,3.08842 39.934204,6.19179 3.3675,1.60663 6.7076,2.92115 7.4224,2.92115 2.2094,0 8.6965,3.41072 9.8024,5.15382 0.7127,1.1232 0.7507,4.49208 0.1187,10.5 -0.5119,4.8654 -0.9387,12.50358 -0.9484,16.97374 -0.021,9.36447 0.8308,10.66746 6.6553,10.18697 3.0171,-0.2489 4.0864,-0.88838 5.12443,-3.06453 0.7214,-1.5125 1.7482,-2.75 2.2818,-2.75 2.4592,0 3.1253,5.75532 2.3149,20 -0.4537,7.975 -0.9041,19.225 -1.0008,25 -0.4582,27.35779 -1.3941,50.26918 -2.3693,58 -0.5897,4.675 -0.9564,12.775 -0.8148,18 0.1416,5.225 -0.3653,21.65 -1.12643,36.5 -1.4797,28.86849 -2.291,50.86512 -2.4712,67 l -0.1117,10 4.92693,-0.26021 c 5.8154,-0.30715 6.7365,-0.91594 4.1961,-2.77351 -2.3989,-1.75413 -1.4174,-4.47832 1.5956,-4.42873 1.2548,0.0207 3.9821,1.49414 6.0607,3.27443 4.5763,3.91962 4.4845,2.55593 2.6723,39.68802 -0.7113,14.57502 -1.4058,31.45002 -1.5433,37.50002 -0.1375,6.05 -0.7506,23.15 -1.3625,38 -1.5881,38.5393 -2.363,59.9514 -2.4608,68 -0.08,6.6005 0.048,7.0188 2.2475,7.3303 1.2828,0.1817 3.1884,-0.4443 4.2346,-1.3911 1.5137,-1.3698 2.9778,-1.5941 7.1676,-1.098 2.8959,0.3428 5.7497,1.2855 6.3418,2.0949 0.592,0.8093 0.9762,4.5298 0.8537,8.2677 -0.1225,3.7379 -0.5001,14.8962 -0.8391,24.7962 -0.339,9.9 -0.8474,25.875 -1.1297,35.5 -0.2824,9.625 -0.9984,30.1 -1.5912,45.5 -0.5928,15.4 -1.2478,33.4 -1.4556,40 -0.2078,6.6 -0.5622,17.625 -0.7875,24.5 -0.2254,6.875 -0.6895,21.05 -1.0313,31.5 -0.3418,10.45 -0.85,27.55 -1.1293,38 -1.2761,47.7445 -2.1171,64.0286 -3.4324,66.4614 -1.0633,1.9666 -1.194,7.7967 -0.6505,29 0.7453,29.078 1.0194,30.3396 7.0249,32.3414 2.2117,0.7373 3.3501,0.5125 5.5167,-1.0894 3.2851,-2.4288 10.4296,-3.2062 28.5102,-3.1023 l 12.9354,0.074 2.7158,2.9073 c 1.4937,1.599 3.4079,2.9073 4.2538,2.9073 0.8459,0 3.6177,-1.8 6.1596,-4 4.5419,-3.931 4.7564,-4 12.4349,-4 6.5921,0 8.5752,0.4185 12.6891,2.6781 2.6818,1.4729 6.3561,4.1687 8.1652,5.9907 1.809,1.822 4.509,3.5785 6,3.9033 1.4909,0.3247 3.8358,0.9673 5.2108,1.4279 1.375,0.4606 3.7511,1.111 5.2803,1.4454 2.0842,0.4557 2.9308,1.3601 3.3811,3.6118 0.7046,3.5226 4.6211,6.9428 7.9504,6.9428 4.9692,0 5.054,-0.8512 5.3283,-53.5 0.1404,-26.95 0.4066,-54.625 0.5915,-61.5 0.577,-21.454 2.5246,-60.282 3.0679,-61.161 0.7007,-1.1338 6.6806,-1.0632 9.7808,0.1155 1.923,0.7311 2.9861,0.5556 4.5426,-0.75 1.6256,-1.3635 2.0866,-3.1049 2.3046,-8.7045 l 0.2725,-7 4,0.2584 c 2.2,0.1421 7.375,0.266 11.5,0.2752 4.125,0.01 8.8977,0.469 10.606,1.0216 5.2303,1.6921 8.1283,-0.1006 8.9428,-5.5321 0.4446,-2.9646 1.3502,-4.9339 2.5689,-5.5861 1.732,-0.9269 1.8823,-2.3923 1.8823,-18.3497 0,-14.1955 0.2722,-17.5683 1.5,-18.5873 1.1019,-0.9145 1.5095,-3.4018 1.536,-9.3724 0.031,-7.0828 0.3467,-8.5078 2.4534,-11.0856 l 2.4175,-2.9581 25.614,0.075 c 17.8393,0.053 25.9621,0.4236 26.7609,1.2224 0.7547,0.7547 1.0657,4.9047 0.9092,12.1326 l -0.2378,10.9856 9.6191,0 c 7.1209,0 10.3403,0.426 12.396,1.6404 4.0249,2.3775 7.7636,1.1734 8.8023,-2.8351 0.9784,-3.7755 3.3586,-5.0983 2.9826,-1.6575 -0.2376,2.1738 0.2045,2.3676 7.1667,3.142 4.0809,0.4539 8.9108,1.4483 10.733,2.2096 l 3.3131,1.3843 0.267,25.8082 0.267,25.8081 27.917,0.2661 c 18.9938,0.1811 28.3541,0.629 29.2849,1.4014 0.962,0.7984 1.2978,3.1754 1.1317,8.0099 -0.2157,6.2781 0,7.1067 2.4398,9.5505 2.2725,2.2725 3.0836,2.5325 5.3797,1.724 1.6739,-0.5893 2.9781,-1.9782 3.424,-3.6465 0.9836,-3.6796 2.4736,-33.6194 3.4492,-69.3054 1.2772,-46.7168 3.5266,-98.6636 4.4818,-103.5 2.4568,-12.4392 2.9713,-21.5018 1.8661,-32.8724 -1.4827,-15.2531 1.6075,-109.1413 3.7289,-113.2943 0.8439,-1.6522 2.7954,-3.1248 5.1295,-3.8708 2.0721,-0.6623 4.1765,-1.5813 4.6765,-2.0424 0.5,-0.461 2.8433,-0.5731 5.2075,-0.2491 3.2182,0.4411 5.4373,0.054 8.83,-1.5409 5.2346,-2.4606 5.9241,-2.54 8.4345,-0.9723 2.399,1.4982 5.1189,0.4334 5.1189,-2.004 0,-1.0499 0.5625,-2.3594 1.25,-2.9101 1.5703,-1.2577 21.2314,-3.6823 22.6667,-2.7952 0.7099,0.4387 0.5431,1.4462 -0.5038,3.0441 -1.542,2.3534 -1.509,2.3977 2.2611,3.0392 2.1043,0.3581 5.401,1.0574 7.326,1.554 1.925,0.4967 5.8137,0.9055 8.6416,0.9086 4.6075,0.01 5.2047,-0.2458 5.7491,-2.415 0.3341,-1.3312 0.3362,-3.1275 0,-3.9915 -0.3698,-0.9635 0.062,-1.8263 1.117,-2.231 0.946,-0.363 17.7401,0.1558 37.3203,1.153 31.5123,1.6049 35.9802,2.0372 38.908,3.7646 l 3.3075,1.9515 -2.5999,2.4095 c -1.43,1.3252 -2.424,2.9374 -2.209,3.5825 0.4847,1.4541 5.6889,2.9304 7.8881,2.2377 2.2651,-0.7136 18.973,-0.6917 33.8495,0.044 9.9435,0.4919 13.127,1.019 15.6788,2.5961 3.8517,2.3805 5.2214,6.9086 3.0837,10.1945 -2.1827,3.3549 -2.7726,11.217 -1.0284,13.7072 1.1123,1.588 1.2948,3.6642 0.7727,8.7906 -0.3759,3.6913 -0.6226,12.5234 -0.5481,19.6267 0.1056,10.0668 -0.2231,13.6709 -1.4904,16.3415 -1.1609,2.4466 -1.4605,4.9015 -1.0474,8.5848 1.7929,15.9893 1.805,17.2373 0.2051,21.0666 -1.8841,4.5093 -2.1135,13.8014 -0.4081,16.5322 0.9286,1.487 0.9165,3.544 -0.055,9.2364 -2.0518,12.0267 -2.4341,17.9294 -1.2385,19.125 1.7224,1.7224 1.3629,12.8758 -0.5008,15.5366 -1.141,1.629 -1.4303,3.4838 -1.0094,6.4725 1.4982,10.6411 1.8226,19.7265 0.7504,21.0184 -1.2664,1.5259 -1.4999,9.7052 -0.5874,20.5722 0.4197,4.9973 0.2273,8.1381 -0.5924,9.6697 -0.8253,1.5421 -0.9876,4.2953 -0.507,8.5987 0.9401,8.4166 0.6847,17.7007 -0.5503,20.0083 -0.6226,1.1634 -0.7383,6.5579 -0.3072,14.3176 0.4944,8.8989 0.3604,12.8503 -0.47,13.8507 -0.7557,0.9106 -0.9541,3.4538 -0.5677,7.2768 1.6349,16.1765 1.6248,19.4681 -0.071,23.0409 -1.1913,2.5104 -1.4881,4.7464 -1.0206,7.688 0.3625,2.2814 0.8948,7.5208 1.1829,11.6431 0.288,4.1223 1.0092,7.7952 1.6026,8.1619 0.5934,0.3668 2.1969,0.2418 3.5633,-0.2777 2.0015,-0.7609 2.9408,-0.5156 4.8334,1.2624 1.9873,1.8669 2.3492,3.1853 2.3492,8.5574 0,5.8536 0.1956,6.4248 2.5,7.3009 1.9906,0.7568 2.5,1.6438 2.5,4.3528 0,1.8713 0.5625,3.8573 1.25,4.4134 0.6875,0.5561 5.2984,1.5428 10.2465,2.1925 9.6429,1.2663 15.0013,3.2343 16.517,6.0665 0.5193,0.9704 2.3038,2.2384 3.9654,2.8176 2.454,0.8555 3.0211,1.615 3.0211,4.0462 0,1.6461 -0.4976,3.3005 -1.1057,3.6763 -0.7106,0.4392 -0.145,1.5742 1.5828,3.1763 1.9293,1.7889 2.3827,2.7986 1.6057,3.5756 -1.9927,1.9927 -1.116,4.2904 3.4594,9.0655 l 4.5422,4.7405 11.2078,-0.4901 c 6.1643,-0.2696 11.8828,-0.6012 12.7078,-0.7369 0.825,-0.1357 2.9625,0.093 4.75,0.508 3.1855,0.7397 3.25,0.6861 3.25,-2.7023 0,-1.9014 0.5625,-3.9006 1.25,-4.4427 0.6875,-0.5422 5.3643,-1.2639 10.3929,-1.604 7.4032,-0.5006 9.3769,-0.3363 10.3725,0.8633 0.833,1.0037 3.1409,1.4815 7.1567,1.4815 7.7509,0 11.8279,2.0437 11.8279,5.9292 0,2.7339 0.2624,2.9057 5.25,3.4369 2.8875,0.3075 5.7,0.5465 6.25,0.5312 4.9939,-0.1388 14.0076,0.1526 18.5,0.5981 3.025,0.3 7.75,0.7672 10.5,1.0382 2.75,0.271 6.5593,0.5121 8.4651,0.5357 1.9059,0.024 3.9309,0.3895 4.5,0.8131 0.5692,0.4236 4.3219,0.8456 8.3393,0.9378 9.6632,0.2218 10.7674,0.9163 11.5168,7.2436 0.7712,6.5121 1.9837,7.9362 6.75681,7.9362 2.4397,0 5.1725,0.9089 7.5171,2.5 2.0262,1.375 4.4891,2.5 5.473,2.5 1.8934,0 4.9319,-2.5084 4.9319,-4.0714 0,-0.5107 0.9,-0.9286 2,-0.9286 1.1,0 2,0.5164 2,1.1476 0,0.8379 2.6311,0.9388 9.75,0.3738 12.6393,-1.0032 11.581,-1.1043 20.25,1.9347 15.817,5.5449 22.4246,6.3667 53.1803,6.6138 2.1737,0.017 3.2425,1.0053 5.654,5.2258 4.3316,7.581 14.4777,17.5 20.9156,20.4473 4.7091,2.1559 6.2421,2.3912 11.5885,1.7788 3.3889,-0.3882 9.4416,-0.6376 13.4506,-0.5542 9.9643,0.2073 16.8119,-1.9328 21.3555,-6.6742 6.1527,-6.4206 7.3103,-9.6034 7.5626,-20.7934 0.6007,-26.649 0.9571,-32.1143 2.2495,-34.5 0.7448,-1.375 1.6678,-3.175 2.051,-4 1.0979,-2.3639 4.709,-2.338 8.0736,0.058 2.5632,1.8252 4.6889,2.2442 12.5723,2.4782 6.6988,0.1988 9.9811,0.7226 11.167,1.782 0.9237,0.8253 3.2545,1.6538 5.1795,1.8412 3.2753,0.3189 3.5082,0.1482 3.628,-2.6592 0.1708,-4.0039 1.2754,-13.9465 2.1585,-19.4297 0.94,-5.8361 3.2455,-6.5021 17.2135,-4.9728 17.6847,1.9362 21.6684,3.1551 25.698,7.8628 4.1656,4.8666 8.0054,7.0337 12.5023,7.0562 1.8149,0.01 6.6747,0.8358 10.7997,1.8374 l 7.5,1.8209 0.084,5.7111 c 0.1396,9.4706 2.7809,10.5534 25.8339,10.5902 15.778,0.025 26.643,1.371 30.2831,3.7508 3.3677,2.2018 4.1515,9.3737 1.4058,12.8642 -3.9755,5.0541 -2.5309,8.4675 4.6248,10.9275 4.2908,1.4751 5.0199,3.1364 5.1685,11.7769 0.083,4.799 0.5372,6.2329 2.6442,8.3399 1.7348,1.7348 3.0871,2.3114 4.25,1.8121 0.938,-0.4027 3.9027,-1.0452 6.5882,-1.4276 4.2236,-0.6015 5.4595,-1.3585 9.1549,-5.6076 l 4.2722,-4.9123 10.4367,0.2444 c 8.9679,0.21 11.4488,-0.1091 17.6275,-2.2678 4.8627,-1.699 7.7468,-2.2254 8.9084,-1.6261 0.9447,0.4874 3.4726,1.2035 5.6177,1.5913 2.145,0.3878 5.6683,2.1262 7.8295,3.863 3.4597,2.7803 3.8517,3.5187 3.2784,6.1765 -2.9319,13.5927 -1.3519,16.5187 8.9194,16.5187 8.9275,0 10.1787,-1.6801 10.9976,-14.7679 1.2963,-20.719 3.4302,-27.1831 8.9993,-27.2612 1.1416,-0.016 5.2257,-0.9172 9.0757,-2.0027 15.7987,-4.4543 15.992,-4.4708 51.1083,-4.3795 18.7596,0.049 34.8471,0.3721 35.75,0.7186 1.5155,0.5815 1.6417,17.8529 1.6417,224.6613 l 0.01,224.0315 -1536.000044,0 -1535.999956,0 0,-254.9758 z m 1747.19999,-92.2242 c -0.6417,-0.6417 -1.4986,-0.8347 -1.9044,-0.429 -0.4057,0.4058 -0.089,1.1388 0.7044,1.629 1.8676,1.1542 2.7109,0.3109 1.2,-1.2 z M -165.19864,961.36882 c -3.4646,-3.82837 1.6653,-9.43437 5.3037,-5.79594 2.4076,2.40759 0.7864,7.8 -2.345,7.8 -0.6298,0 -1.9612,-0.90183 -2.9587,-2.00406 z"
         id="path2818"
         inkscape:connector-curvature="0" />
      <path
         style="fill:#888a85;fill-opacity:1"
         d="m 1848.073,1919.4676 c -4.2926,-1.9709 -6.4433,-2.0015 -140.75,-2.0015 l -136.3908,0 0,-265.9847 -0.4576,-244.4761 16.1231,0.7777 5.9677,-1.6354 11.2935,0.3185 c 5.9669,0.1683 8.0733,2.1981 8.0733,8.4343 0,3.0581 0.5316,5.7449 1.25,6.3181 0.7457,0.5949 17.7909,1.3261 42.25,1.8124 51.994,1.0336 51.8964,1.0309 64.8921,1.8094 7.4068,0.4437 11.9364,0.2749 14.1556,-0.5276 2.4396,-0.8822 5.7488,-0.9138 13.1079,-0.1252 8.1593,0.8743 10.3274,0.8065 12.6662,-0.3961 3.0646,-1.5758 6.0134,-0.3624 5.0732,2.0876 -0.6684,1.7418 1.5951,3.4128 4.605,3.3995 14.6123,-0.064 18.5923,2.3436 17.6555,10.6828 -0.3092,2.7526 -0.8477,8.8298 -1.1967,13.5048 -0.8461,11.3352 -0.1423,12.283 9.527,12.8294 3.9622,0.2238 8.1737,-0.062 9.3591,-0.6359 2.4495,-1.1853 6.9729,-2.2532 10.6551,-2.5155 1.8985,-0.1352 2.5769,0.3633 2.8195,2.072 0.2639,1.858 0.9608,2.2576 4,2.2939 2.0243,0.024 5.4805,0.6924 7.6805,1.4849 2.2,0.7926 5.057,1.4479 6.3489,1.4561 1.2918,0.01 3.7668,0.6534 5.5,1.4335 4.1538,1.8698 16.2799,3.8342 18.7766,3.0418 1.0838,-0.344 2.5114,-0.2036 3.1725,0.3119 0.6611,0.5155 7.952,1.4917 16.202,2.1693 9.2482,0.7595 15.8493,1.7739 17.2148,2.6453 1.2182,0.7773 3.7791,1.4133 5.691,1.4133 1.9119,0 3.743,0.4317 4.0691,0.9594 0.3261,0.5276 2.7594,0.8651 5.4073,0.75 2.6479,-0.1152 5.8951,0.3203 7.2161,0.9677 1.3209,0.6474 5.9917,1.6724 10.3795,2.2778 4.3878,0.6054 8.4204,1.5433 8.9613,2.0842 0.5409,0.5409 1.0009,4.4659 1.0222,8.7222 0.029,5.7746 0.3662,7.6718 1.3292,7.4752 0.7098,-0.1449 2.1742,0.2094 3.2544,0.7875 1.6454,0.8806 2.1512,0.6396 3.12,-1.4865 0.6358,-1.3956 1.4214,-2.5506 1.7456,-2.5667 0.3242,-0.016 4.1895,-0.1769 8.5895,-0.3575 4.4,-0.1806 8.8104,-0.6744 9.8009,-1.0973 1.8995,-0.8111 5.7769,2.0745 8.0409,5.984 0.8349,1.4417 1.2977,21.9578 1.6582,73.5 l 0.5,71.5 19.7828,0.2712 19.7828,0.2713 0.9424,2.4787 0.9425,2.4788 16.4657,0 c 9.0561,0 16.7067,-0.3899 17.0012,-0.8664 0.2945,-0.4766 0.5689,-23.8766 0.6096,-52 0.052,-35.7366 0.3977,-51.1336 1.1486,-51.1336 0.6537,0 0.8459,-1.1425 0.4908,-2.9178 -0.4047,-2.0236 -0.01,-3.6507 1.2974,-5.3091 1.0345,-1.3152 2.0284,-3.9397 2.2086,-5.8322 l 0.3276,-3.4409 18.4566,-0.5 18.4566,-0.5 0.8261,-3.9827 c 0.4544,-2.1905 1.2472,-4.4039 1.762,-4.9186 0.5285,-0.5286 8.6743,-0.8375 18.7172,-0.7099 15.9745,0.2029 18.2387,0.448 22.2815,2.4116 2.475,1.2021 7.2,2.4138 10.5,2.6926 l 6,0.507 1.5135,4.5 c 2.2019,6.5466 2.3552,6.6705 9.2141,7.4438 3.4498,0.389 6.9651,1.3323 7.8117,2.0961 2.0612,1.8596 51.2572,2.2888 53.4531,0.4664 0.7876,-0.6537 1.5407,-3.4455 1.7081,-6.3322 0.2805,-4.8367 0.4891,-5.2033 3.2995,-5.8003 3.8981,-0.8279 22.3315,-0.8374 29.9246,-0.015 5.7563,0.6233 5.9963,0.7694 8.4473,5.1415 1.9372,3.4557 2.6508,6.4725 3.0753,13 l 0.5528,8.5 49.5,0.6172 c 27.225,0.3395 50.7441,0.9557 52.2647,1.3694 3.2736,0.8906 3.8981,1.7197 5.2815,7.0114 l 1.0463,4.002 25.4537,0.6146 c 13.9996,0.338 26.5788,0.8931 27.9538,1.2336 1.375,0.3405 9.0249,0.756 17,0.9233 l 14.5,0.3043 0.5,14.9621 0.5,14.9621 8.5,0 8.5,0 0.2611,-40.6368 c 0.2215,-34.4681 0.4862,-40.8236 1.7438,-41.8673 1.0227,-0.8487 7.7671,-1.37 21.7388,-1.68 11.141,-0.2473 20.7967,-0.6219 21.4572,-0.8325 0.7221,-0.2303 1.3202,-2.8952 1.5,-6.6832 l 0.2991,-6.3002 40.5,-0.1064 c 22.275,-0.058 40.95,0.2207 41.5,0.6206 0.5499,0.3998 10.45,1.2677 22,1.9287 11.5499,0.6609 21.9,1.2816 23,1.3794 1.5883,0.1411 2.1029,1.0942 2.5,4.6303 l 0.5,4.4526 4.2183,0.101 c 2.6239,0.063 4.4076,-0.3918 4.7187,-1.2026 0.275,-0.717 1.404,-1.3036 2.5085,-1.3036 1.1045,0 2.772,-1.1656 3.7055,-2.5902 1.3579,-2.0724 2.2525,-2.4791 4.4753,-2.0345 1.5346,0.3069 3.9908,-0.073 5.4872,-0.8498 1.4899,-0.773 10.6239,-9.0022 20.2977,-18.2871 20.0582,-19.2517 27.7837,-26.2384 29.0133,-26.2384 1.7312,0 10.0802,7.7906 20.362,19 5.8016,6.325 14.7715,15.9469 19.9333,21.3819 8.6563,9.1147 9.5452,9.7818 11.4501,8.5922 3.0909,-1.9303 4.9708,-0.6224 5.705,3.9691 0.489,3.0577 1.2959,4.4053 3.1415,5.2462 3.0056,1.3695 3.0813,2.2353 0.4836,5.5377 -1.6514,2.0995 -2,4.0568 -2,11.2309 l 0,8.6882 4.826,5.1674 c 5.0798,5.4394 5.8725,6.7412 8.8348,14.5098 1.3925,3.6519 2.6199,5.1539 5.0536,6.1841 4.3807,1.8544 5.4999,6.0908 2.2947,8.6862 -1.2609,1.021 -1.9873,2.1614 -1.6144,2.5344 0.373,0.3729 3.9622,0.8032 7.9761,0.9562 11.8364,0.4511 14.8681,1.3811 15.802,4.8473 0.44,1.6326 0.7921,31.0569 0.7825,65.3873 -0.01,35.8819 0.3669,62.8033 0.8865,63.3229 0.4971,0.4971 2.4236,0.7586 4.281,0.581 l 3.3772,-0.3228 0.5,-8 0.5,-8 17.5,-0.5 17.5,-0.5 0.5,-3.5 c 0.4012,-2.8086 0.9939,-3.5661 3,-3.8347 1.375,-0.184 2.8393,-0.6584 3.2541,-1.054 0.4147,-0.3957 0.7586,-23.4201 0.7641,-51.1654 0.01,-49.4648 0.1538,-52.2309 3.3764,-64.8662 1.3285,-5.2092 3.1978,-6.2821 4.5856,-2.6319 l 0.9924,2.6104 13.2637,-0.2791 13.2637,-0.2791 0.5,-10.5 0.5,-10.5 19.5,-0.5 19.5,-0.5 0.642,-41.3019 c 0.5334,-34.3204 0.8915,-41.5889 2.118,-43 1.8978,-2.1833 2.9713,-12.5669 1.4558,-14.0823 -0.6138,-0.6137 -2.3208,-1.1158 -3.7934,-1.1158 -2.9701,0 -5.7772,-2.5658 -4.33,-3.9577 0.4991,-0.4801 2.0326,-1.0236 3.4076,-1.2076 2.4209,-0.3241 2.5227,-0.651 3.2194,-10.3347 0.3957,-5.5 1.0708,-13.375 1.5,-17.5 l 0.7806,-7.5 8.5,-0.6508 c 4.6749,-0.3579 12.917,-0.6954 18.3157,-0.75 5.3987,-0.055 10.6332,-0.5367 11.6323,-1.0714 1.1619,-0.6218 2.0726,-2.6796 2.527,-5.7099 0.5561,-3.7081 0.9165,-4.3697 1.6582,-3.0444 0.5212,0.9314 0.817,2.9224 0.6572,4.4244 -0.2094,1.9697 0.2108,2.8336 1.5076,3.0991 2.7548,0.564 4.702,-1.6803 4.702,-5.4194 0,-1.8577 0.45,-3.3776 1,-3.3776 0.55,0 1,1.5484 1,3.441 0,1.8925 0.5131,3.7581 1.1402,4.1456 0.6271,0.3876 6.5343,1.049 13.1271,1.4699 9.4973,0.6062 12.8432,0.4609 16.1098,-0.6997 2.5732,-0.9143 6.037,-1.2733 9.2155,-0.9552 2.801,0.2803 6.401,0.1613 8,-0.2645 2.9022,-0.7727 2.9084,-0.7913 3.4809,-10.4791 0.9102,-15.4019 4.5628,-16.1912 5.6197,-1.2144 0.6026,8.5382 0.6946,8.7956 3.4932,9.7712 1.5809,0.5511 3.5473,2.3032 4.3697,3.8936 1.4486,2.8015 1.7516,2.8983 9.7195,3.1069 4.5234,0.1184 10.0243,0.1783 12.2244,0.1331 2.2,-0.045 15.2219,-0.2709 28.9377,-0.5014 l 24.9377,-0.419 0.804,-2.964 c 0.4424,-1.6302 0.5209,-6.4192 0.1746,-10.6423 -0.6243,-7.6134 -0.5999,-7.7191 2.8825,-12.5 9.5701,-13.138 12.1178,-24.8461 9.5357,-43.8217 -0.2581,-1.8956 0.5367,-2.0433 15.2277,-2.8295 19.67,-1.0526 18.6875,-0.089 18.9114,-18.5416 0.1198,-9.8762 0.5365,-13.9724 1.5354,-15.0921 0.7539,-0.8452 1.5244,-2.6618 1.712,-4.0368 0.2564,-1.8783 1.0251,-2.5787 3.0912,-2.8164 2.1477,-0.2471 2.75,-0.8418 2.75,-2.7148 0,-1.4315 0.8676,-2.8628 2.152,-3.5502 3.1909,-1.7077 24.4854,-2.007 29.348,-0.4125 3.9283,1.2882 14.8739,2.5937 21.2221,2.5312 2.4148,-0.024 3.7579,0.6928 5.3599,2.8597 1.9233,2.6014 2.7034,2.8888 7.7778,2.8656 6.5308,-0.03 18.374,0.7248 43.6402,2.7812 9.9,0.8057 23.4,1.6395 30,1.8529 l 12,0.3879 0,12.1424 c 0,11.9436 0.044,12.1631 2.5,13.4013 2.1007,1.0591 2.4968,1.9661 2.4968,5.7153 0,5.5254 0.9901,7.2996 3.3647,6.0289 1.058,-0.5663 2.3114,-0.5734 3.1893,-0.018 0.7952,0.5032 3.6502,0.9218 6.344,0.9302 l 4.898,0.015 -0.5812,8.9717 c -0.8164,12.6008 -0.6312,12.7705 14.6808,13.4546 6.5426,0.2924 12.1193,0.7552 12.3925,1.0285 0.8754,0.8753 -1.7896,3.3288 -4.3003,3.9589 -4.0076,1.0058 -4.9004,4.096 -5.2253,18.0863 -0.1661,7.15 -0.4788,17.5 -0.6949,23 -0.8942,22.7567 -1.5756,44.2512 -2.0605,65 -0.2828,12.1 -0.7487,29.425 -1.0354,38.5 -1.719,54.4185 -2.8516,170.5383 -1.7849,183 l 0.8132,9.5 12.1542,0.28 12.1542,0.28 2.4805,3.2521 c 1.3643,1.7887 2.65,4.1377 2.8572,5.22 0.264,1.3795 1.4198,2.1174 3.8653,2.4679 3.098,0.444 3.5446,0.8918 3.9886,4 l 0.5,3.5 30.5,0 30.5,0 0.5,-9 0.5,-9 4,-0.5 4,-0.5 0.2988,-6.2933 c 0.2618,-5.5119 0.585,-6.4021 2.6033,-7.1695 2.2677,-0.8621 2.3146,-1.1924 2.9427,-20.7067 0.351,-10.9068 0.9826,-21.6022 1.4035,-23.7676 0.8788,-4.5219 -1.5092,-4.0317 24.1604,-4.9595 7.9248,-0.2864 14.843,-0.9551 15.3739,-1.486 1.0817,-1.0817 4.0499,-78.2978 7.2119,-187.6174 0.2863,-9.9 0.982,-33.975 1.546,-53.5 0.5639,-19.525 1.193,-47.425 1.3979,-62 0.205,-14.575 0.9109,-40.45 1.5688,-57.5 1.3222,-34.2646 1.1319,-33.46 7.9339,-33.5439 1.9574,-0.024 5.3589,-0.753 7.5589,-1.6196 2.2,-0.8667 5.3181,-1.5338 6.9291,-1.4824 3.6498,0.1165 5.5709,-1.4069 5.5709,-4.4175 0,-1.2752 0.4364,-2.5883 0.9698,-2.9179 0.9688,-0.5988 12.6428,-2.1664 23.0302,-3.0926 7.555,-0.6737 8,-0.9256 8,-4.5287 0,-1.7409 0.4621,-4.7926 1.0269,-6.7814 0.5647,-1.9888 1.3522,-13.0561 1.75,-24.594 l 0.7231,-20.9781 2.5,-0.7043 c 1.375,-0.3875 10.375,-1.6455 20,-2.7956 30.6182,-3.6586 47.29,-6.0413 48.4111,-6.9187 0.5989,-0.4687 5.4844,-1.1271 10.8568,-1.4631 5.3723,-0.336 10.6302,-1.0725 11.6842,-1.6366 1.054,-0.5641 3.8585,-1.0257 6.2322,-1.0258 3.747,-2e-4 10.0475,-0.9386 34.3157,-5.1114 2.75,-0.4729 7.7,-1.16 11,-1.527 3.3,-0.367 6.9,-1.196 8,-1.8422 2.7557,-1.6188 35.8084,-1.9526 43.5002,-0.4394 3.246,0.6386 7.4616,0.8685 9.368,0.5109 4.4107,-0.8274 4.5117,-1.3987 5.2361,-29.5907 0.3038,-11.825 0.6718,-22.625 0.8178,-24 0.146,-1.375 0.3358,-8.6015 0.4217,-16.0589 0.1894,-16.4377 0.6109,-17.3267 8.3048,-17.5155 2.9433,-0.072 14.3514,-0.4217 25.3514,-0.7765 52.4361,-1.6916 66.7151,-1.996 103,-2.1957 71.5597,-0.3938 80.95,-0.582 82.2346,-1.6481 0.6978,-0.5791 2.6827,-0.7424 4.5062,-0.3707 1.7926,0.3653 5.0592,0.7001 7.2592,0.7439 10.6076,0.2113 136.1597,-1.35 137.25,-1.7067 0.6875,-0.225 1.25,-1.3 1.25,-2.3889 0,-1.1196 3.7468,-5.9172 8.6228,-11.041 l 8.6228,-9.0611 47.6272,0.2596 47.6272,0.2596 0.2726,211.5 c 0.1781,138.1804 -0.077,214.1 -0.7363,219 -1.0611,7.8882 -1.9954,35.7659 -2.4222,72.28 -0.2467,21.1021 -0.3224,21.8274 -2.4344,23.3067 -1.1988,0.8397 -2.1797,1.8511 -2.1797,2.2475 0,1.0754 12.0438,6.0226 15.5,6.3669 l 3,0.2989 0,10.1993 c 0,5.6096 0.4534,10.653 1.0075,11.2075 0.5542,0.5546 5.0542,1.1399 10,1.3007 l 8.9925,0.2925 -0.1873,57.9142 c -0.1243,38.4188 -0.5773,60.2261 -1.3458,64.7821 -0.888,5.2643 -0.8819,7.2012 0.026,8.2949 0.7517,0.9058 0.918,2.6287 0.4553,4.7178 -0.991,4.4748 -0.6758,40.9632 0.3629,42.0019 0.4569,0.4569 10.2489,0.7089 21.7599,0.5599 l 20.9292,-0.2708 0.5,-3.9218 c 0.5507,-4.3197 2.0167,-5.468 3.9724,-3.1115 1.6149,1.9458 3.9217,1.9729 4.6578,0.055 0.3406,-0.8877 2.5602,-1.743 5.5538,-2.1401 2.7425,-0.3638 5.166,-1.1609 5.3857,-1.7713 0.2197,-0.6105 0.6167,-24.0599 0.8824,-52.1099 0.2656,-28.05 0.835,-54.825 1.2654,-59.5 l 0.7825,-8.5 14.5,-0.5 c 7.975,-0.275 41.725,-0.275 75,0 l 60.5,0.5 0.5,23.5 0.5,23.5 26.75,0.2663 26.75,0.2664 0,108.9364 0,108.9363 -299.75,0.5868 c -164.8625,0.3227 -321.8,0.5619 -348.75,0.5315 -26.95,-0.03 -515.2,-0.261 -1085,-0.5125 -885.1524,-0.3907 -1036.4367,-0.254 -1038.9999,0.9386 -5.4093,2.517 -7.8423,2.6256 -12.3592,0.5517 l 0,-4e-4 z m 1495.6474,-565.9288 c 1.1902,-1.6101 3.1874,-3.0825 4.438,-3.272 2.2149,-0.3357 2.222,-0.3731 0.2738,-1.4416 -3.1025,-1.7017 -23.5,-2.4601 -23.5,-0.8738 0,0.6984 0.6955,1.847 1.5454,2.5525 0.85,0.7054 1.3286,1.8483 1.0633,2.5397 -0.8475,2.2083 6.5783,3.547 7.8913,1.4225 0.9667,-1.5642 4.5,-1.1716 4.5,0.5 0,2.3187 1.4119,1.7867 3.7882,-1.4273 z m 35.2118,-0.1565 c 0,-4.0418 -12.0933,-5.472 -12.8434,-1.5189 -0.3151,1.66 0.091,1.8243 3.2417,1.3129 2.0605,-0.3344 3.6017,-0.1697 3.6017,0.3849 0,1.1244 4.1403,2.8819 5.25,2.2285 0.4125,-0.2429 0.75,-1.3262 0.75,-2.4074 z m -68.8925,-2.3497 c 1.2175,0.7524 8.8925,-2.4404 8.8925,-3.6993 0,-0.456 -1.0126,-1.0609 -2.25,-1.3442 -3.3136,-0.7587 -17.938,-1.3881 -19.3815,-0.8342 -2.1507,0.8253 -0.2754,3.3112 2.4979,3.3112 1.5795,0 3.1636,0.8183 3.9159,2.023 1.0261,1.6431 1.6385,1.8222 3.2612,0.9537 1.0988,-0.588 2.4776,-0.7727 3.064,-0.4102 z m 48.3925,-0.6361 c 0,-0.7717 -0.7875,-1.5547 -1.75,-1.74 -1.7237,-0.332 -2.4364,1.7899 -1.0625,3.1638 1.0481,1.0482 2.8125,0.155 2.8125,-1.4238 z m -621.5,111.5696 c 0,-1.03 0.6554,-1.5204 1.75,-1.3096 0.9625,0.1853 1.75,0.7747 1.75,1.3096 0,0.5349 -0.7875,1.1243 -1.75,1.3096 -1.0946,0.2108 -1.75,-0.2796 -1.75,-1.3096 z"
         id="path2930"
         sodipodi:nodetypes="cccccccsssssssssssssssssssssssssssssssssssssscccccccssssscccccssscccssssssscccscccscccccccssscccssscccssssssssssssscccsssssssscccccccsssscccccccccsssssscccsssssssssssssssssssscccssssssssssssssscccsssscccssssssscccccsscccccccccssssssssssssssssscccssssssssssssssssssssscccccsssscccscccsssscccssssscccccccccccccsscccsssssssccssssccssssssccssccsssc"
         inkscape:connector-curvature="0" />
    </g>
  </g>
</svg>
